<?xml version="1.0" encoding="UTF-8" standalone="no"?>
<!-- Created with Inkscape (http://www.inkscape.org/) -->

<svg
   xmlns:dc="http://purl.org/dc/elements/1.1/"
   xmlns:cc="http://creativecommons.org/ns#"
   xmlns:rdf="http://www.w3.org/1999/02/22-rdf-syntax-ns#"
   xmlns:svg="http://www.w3.org/2000/svg"
   xmlns="http://www.w3.org/2000/svg"
   xmlns:sodipodi="http://sodipodi.sourceforge.net/DTD/sodipodi-0.dtd"
   xmlns:inkscape="http://www.inkscape.org/namespaces/inkscape"
   width="57.068691"
   height="11.999495"
   id="svg4636"
   version="1.1"
   inkscape:version="0.48.3.1 r9886"
   sodipodi:docname="emapic_descriptor.svg">
  <defs
     id="defs4638" />
  <sodipodi:namedview
     id="base"
     pagecolor="#ffffff"
     bordercolor="#666666"
     borderopacity="1.0"
     inkscape:pageopacity="0.0"
     inkscape:pageshadow="2"
     inkscape:zoom="16.334167"
     inkscape:cx="31.94984"
     inkscape:cy="4.3245043"
     inkscape:document-units="px"
     inkscape:current-layer="layer1"
     showgrid="false"
     fit-margin-top="0"
     fit-margin-left="0"
     fit-margin-right="0"
     fit-margin-bottom="0"
     inkscape:window-width="1280"
     inkscape:window-height="726"
     inkscape:window-x="0"
     inkscape:window-y="25"
     inkscape:window-maximized="1" />
  <metadata
     id="metadata4641">
    <rdf:RDF>
      <cc:Work
         rdf:about="">
        <dc:format>image/svg+xml</dc:format>
        <dc:type
           rdf:resource="http://purl.org/dc/dcmitype/StillImage" />
        <dc:title></dc:title>
      </cc:Work>
    </rdf:RDF>
  </metadata>
  <g
     inkscape:label="Capa 1"
     inkscape:groupmode="layer"
     id="layer1"
     transform="translate(-574.3228,-623.50529)">
    <path
       inkscape:connector-curvature="0"
       id="path5823-9-1"
       d="m 612.041,635.49244 c -0.1978,-0.0405 -0.3552,-0.17154 -0.4155,-0.34625 -0.022,-0.0632 -0.03,-1.43751 -0.03,-5.56235 l 0,-5.47831 0.055,-0.10885 c 0.08,-0.15593 0.2014,-0.24328 0.3867,-0.27774 0.2871,-0.0534 0.5207,0.0346 0.6262,0.23607 0.05,0.0926 0.055,0.15255 0.067,0.59703 0.016,0.58374 0.026,0.60295 0.1975,0.34087 0.1419,-0.21818 0.484,-0.55948 0.7181,-0.71624 0.376,-0.25197 0.8193,-0.43006 1.2895,-0.51805 0.2869,-0.0536 1.0301,-0.0604 1.3058,-0.012 0.7086,0.12472 1.2961,0.35683 1.829,0.72252 1.0509,0.72107 1.6873,1.81522 1.8532,3.18563 0.036,0.29766 0.03,1.00509 -0.012,1.31067 -0.1889,1.41795 -0.9793,2.58996 -2.1656,3.21133 -1.1934,0.62507 -2.7548,0.67859 -3.8422,0.13167 -0.3689,-0.18552 -0.7231,-0.48246 -0.945,-0.79217 -0.2035,-0.28399 -0.1902,-0.39921 -0.2044,1.78738 -0.014,2.11943 -0.012,1.99174 -0.1647,2.1411 -0.1391,0.1293 -0.3571,0.18754 -0.5525,0.14763 z m 3.9455,-4.03357 c 0.9622,-0.13382 1.7849,-0.62641 2.2757,-1.36263 0.7502,-1.12514 0.6895,-2.91238 -0.1377,-4.06087 -0.3014,-0.41825 -0.6702,-0.74403 -1.0855,-0.95856 -0.7949,-0.4106 -1.6529,-0.47547 -2.4715,-0.18687 -1.0163,0.35835 -1.6628,1.15756 -1.7871,2.20892 -0.041,0.34807 -0.015,2.05548 0.035,2.26304 0.1662,0.69355 0.5296,1.22453 1.1024,1.6114 0.583,0.39388 1.381,0.58119 2.0685,0.48557 z m -37.9301,1.09882 c -1.2538,-0.17016 -2.3174,-0.78304 -2.9184,-1.68178 -0.5394,-0.80679 -0.8152,-1.7293 -0.8152,-2.72722 0,-1.2929 0.4603,-2.44117 1.3147,-3.2793 0.5754,-0.56451 1.3924,-0.96918 2.2693,-1.12406 0.343,-0.0605 1.0258,-0.0724 1.3842,-0.024 1.2994,0.17577 2.3092,0.73929 3.0118,1.6808 0.5224,0.69995 0.8441,1.73999 0.8441,2.7287 0,0.23035 -0.012,0.26957 -0.068,0.39028 -0.084,0.16522 -0.2362,0.27466 -0.4396,0.3155 -0.1015,0.0204 -0.7033,0.0288 -2.0744,0.0288 l -1.9309,0 -0.1095,-0.0556 c -0.062,-0.032 -0.1407,-0.1 -0.1826,-0.16023 -0.061,-0.0877 -0.074,-0.12979 -0.074,-0.26132 0,-0.13046 0.012,-0.17352 0.065,-0.25692 0.036,-0.0551 0.1084,-0.12661 0.1607,-0.15886 l 0.095,-0.0587 1.697,-0.007 c 1.4241,-0.006 1.7014,-0.0125 1.7256,-0.0417 0.037,-0.0453 -0.043,-0.53025 -0.1365,-0.8287 -0.2045,-0.64737 -0.6163,-1.23669 -1.1348,-1.6241 -0.3764,-0.2812 -0.9148,-0.50481 -1.4176,-0.58883 -0.341,-0.057 -1.0272,-0.0398 -1.3415,0.0335 -0.9584,0.2237 -1.6655,0.73547 -2.093,1.51503 -0.2976,0.54255 -0.424,1.06527 -0.4268,1.76401 -0.012,1.08441 0.2725,1.82371 0.9252,2.47296 0.586,0.58282 1.3001,0.88535 2.1699,0.91927 0.8967,0.0349 1.7792,-0.21484 2.3948,-0.67796 0.2389,-0.17969 0.3041,-0.2099 0.4845,-0.22439 0.4183,-0.0335 0.6927,0.34215 0.5219,0.71488 -0.1918,0.4185 -1.0588,0.93086 -1.9104,1.12894 -0.5473,0.12731 -1.4144,0.16553 -1.9884,0.0876 z m 27.6091,0.0146 c -0.6974,-0.0966 -1.2971,-0.30914 -1.7934,-0.63545 -1.1156,-0.7336 -1.7782,-1.81767 -1.9677,-3.2197 -0.042,-0.30326 -0.042,-1.08285 0,-1.38419 0.066,-0.48587 0.2393,-1.04499 0.4569,-1.47709 0.3621,-0.71917 1.0501,-1.41096 1.7567,-1.7665 0.3355,-0.16891 0.7354,-0.30832 1.1307,-0.39431 0.2265,-0.0492 0.3258,-0.0556 0.8974,-0.0564 0.7045,-7.2e-4 0.8605,0.018 1.3291,0.16157 0.5963,0.18277 1.1411,0.57298 1.4358,1.02831 0.057,0.0872 0.1246,0.10678 0.149,0.0429 0.011,-0.0216 0.015,-0.20782 0.015,-0.41401 0,-0.31154 0.012,-0.39164 0.046,-0.4738 0.09,-0.19559 0.2627,-0.29126 0.5218,-0.28952 0.2543,0.002 0.423,0.0932 0.5254,0.28477 l 0.055,0.10366 0,4.00419 0,4.00421 -0.055,0.10366 c -0.1026,0.19122 -0.2762,0.27988 -0.5476,0.27897 -0.2582,-7.1e-4 -0.4233,-0.0989 -0.5081,-0.3018 -0.03,-0.0714 -0.038,-0.19189 -0.038,-0.54759 0,-0.25082 -0.012,-0.47364 -0.015,-0.49514 -0.029,-0.0755 -0.082,-0.0375 -0.197,0.1401 -0.1459,0.22596 -0.4857,0.56608 -0.7275,0.72814 -0.3664,0.2455 -0.8322,0.44472 -1.2602,0.53904 -0.2172,0.0479 -0.9641,0.07 -1.2101,0.0359 z m 1.0987,-1.12788 c 1.0438,-0.19686 1.8031,-0.82962 2.1308,-1.77567 0.1346,-0.38843 0.1592,-0.5877 0.1731,-1.39905 0.015,-0.85908 -0.012,-1.27897 -0.1015,-1.63177 -0.1768,-0.69658 -0.6244,-1.25162 -1.2717,-1.57713 -0.219,-0.11012 -0.6167,-0.23905 -0.8941,-0.28998 -0.3445,-0.0632 -0.8997,-0.0577 -1.2281,0.0123 -0.636,0.1355 -1.1668,0.40621 -1.5905,0.81096 -0.254,0.24273 -0.4126,0.45337 -0.5651,0.75015 -0.154,0.2999 -0.2308,0.51608 -0.3031,0.85408 -0.051,0.23986 -0.058,0.33507 -0.056,0.83905 0,0.49326 0.012,0.60018 0.054,0.80783 0.1532,0.6801 0.4257,1.20643 0.8705,1.68144 0.2546,0.27174 0.4638,0.42968 0.7923,0.59815 0.3703,0.18985 0.7309,0.30119 1.1989,0.37 0.1241,0.0183 0.5813,-0.0104 0.7908,-0.0504 z m 20.5178,1.12519 c -1.0253,-0.13156 -1.9455,-0.57058 -2.6354,-1.25716 -0.6127,-0.60981 -1.0284,-1.49715 -1.1766,-2.51142 -0.053,-0.35881 -0.059,-1.10458 -0.013,-1.44335 0.1857,-1.35602 0.8181,-2.42656 1.834,-3.10409 0.7981,-0.53227 1.7396,-0.78037 2.8268,-0.74497 0.9695,0.0316 1.6923,0.30026 2.4116,0.89643 0.235,0.19472 0.5763,0.54942 0.6315,0.6562 0.053,0.1017 0.053,0.31223 0,0.41234 -0.055,0.10666 -0.2435,0.26398 -0.3565,0.29784 -0.2591,0.0777 -0.3902,0.0236 -0.6978,-0.28714 -0.2813,-0.28423 -0.5248,-0.45855 -0.8705,-0.62328 -0.7535,-0.3589 -1.6634,-0.41532 -2.4427,-0.15143 -1.0756,0.36424 -1.8272,1.26822 -2.1042,2.53072 -0.05,0.22269 -0.055,0.32356 -0.055,0.83418 0,0.5084 0.012,0.61202 0.054,0.83062 0.1823,0.83046 0.5506,1.46625 1.1032,1.90424 0.6512,0.5163 1.3819,0.75036 2.2396,0.71739 0.5787,-0.0223 0.9969,-0.12679 1.4614,-0.36537 0.3754,-0.19283 0.498,-0.29581 0.9766,-0.8209 0.249,-0.27314 0.7034,-0.18386 0.8836,0.17363 0.06,0.1188 0.05,0.27361 -0.026,0.42822 -0.083,0.16689 -0.5079,0.60154 -0.7907,0.80921 -0.5841,0.42901 -1.2966,0.71026 -2.0488,0.80889 -0.3076,0.0402 -0.9276,0.045 -1.2068,0.009 z m -5.6503,-0.0644 c -0.2255,-0.0254 -0.3905,-0.12318 -0.4699,-0.27866 -0.05,-0.0951 -0.05,-0.15141 -0.05,-4.10004 0,-2.76859 0.012,-4.02502 0.027,-4.07314 0.095,-0.25071 0.4516,-0.38773 0.7692,-0.29539 0.1806,0.0525 0.3306,0.20768 0.3531,0.3653 0.011,0.0591 0.011,1.8937 0.011,4.0766 l -0.011,3.96895 -0.068,0.10274 c -0.1015,0.15368 -0.3511,0.25734 -0.5623,0.23364 z M 592.91,632.4758 c -0.1935,-0.0588 -0.3194,-0.18209 -0.368,-0.36002 -0.019,-0.0683 -0.027,-0.81625 -0.027,-2.40994 0,-2.5009 0,-2.54083 -0.1361,-3.00316 -0.1343,-0.46358 -0.4316,-0.96373 -0.7355,-1.23712 -0.4882,-0.43916 -1.0905,-0.65375 -1.835,-0.65375 -0.9019,0 -1.697,0.32525 -2.325,0.95093 -0.458,0.45645 -0.7369,0.97622 -0.8824,1.64439 -0.05,0.22471 -0.052,0.3317 -0.066,2.48592 l -0.014,2.25111 -0.069,0.10504 c -0.098,0.14776 -0.2688,0.22455 -0.4989,0.22415 -0.2082,0 -0.338,-0.0525 -0.4503,-0.1804 -0.043,-0.0496 -0.091,-0.13348 -0.1049,-0.18654 -0.017,-0.0661 -0.024,-1.34795 -0.02,-4.0621 l 0.012,-3.96558 0.074,-0.11903 c 0.1061,-0.17004 0.2838,-0.2666 0.4895,-0.26576 0.1838,7e-4 0.2539,0.0255 0.3766,0.13327 0.1637,0.14381 0.1705,0.17782 0.1843,0.92275 0.012,0.59475 0.016,0.66738 0.053,0.66738 0.023,0 0.1061,-0.0985 0.1965,-0.23482 0.299,-0.44973 0.813,-0.89471 1.3003,-1.12599 1.0532,-0.49978 2.4582,-0.48911 3.5301,0.0269 0.3253,0.15656 0.5881,0.33938 0.8458,0.58821 0.3484,0.33663 0.5418,0.61185 0.7205,1.02617 0.054,0.12681 0.1073,0.21397 0.128,0.21397 0.02,0 0.1003,-0.12164 0.184,-0.27916 0.192,-0.36122 0.3844,-0.61853 0.6643,-0.88897 1.2813,-1.23774 3.553,-1.4098 5.1251,-0.38817 0.9209,0.59849 1.467,1.4738 1.5881,2.54498 0.015,0.13599 0.025,1.17918 0.025,2.68361 0,2.1885 -0.012,2.47397 -0.039,2.57687 -0.1439,0.42257 -0.891,0.46191 -1.0749,0.0566 -0.045,-0.0971 -0.046,-0.21087 -0.046,-2.48696 0,-1.58388 -0.012,-2.45996 -0.029,-2.60767 -0.172,-1.40271 -1.3599,-2.38521 -2.8153,-2.32839 -0.5485,0.0214 -0.985,0.13327 -1.4372,0.36839 -0.8656,0.45019 -1.4329,1.22526 -1.6586,2.26642 -0.05,0.22748 -0.052,0.33045 -0.066,2.47427 -0.016,2.4951 0,2.31246 -0.1899,2.46733 -0.137,0.11289 -0.4171,0.16157 -0.6034,0.10493 z"
       style="fill:#ffffff"
       inkscape:export-filename="/media/Lynch/EMAPIC/WEB/Artwork/descriptor_bl.png"
       inkscape:export-xdpi="149.81905"
       inkscape:export-ydpi="149.81905" />
  </g>
</svg>
