<?xml version="1.0" encoding="UTF-8" standalone="no"?>
<!-- Created with Inkscape (http://www.inkscape.org/) -->

<svg
   xmlns:dc="http://purl.org/dc/elements/1.1/"
   xmlns:cc="http://creativecommons.org/ns#"
   xmlns:rdf="http://www.w3.org/1999/02/22-rdf-syntax-ns#"
   xmlns:svg="http://www.w3.org/2000/svg"
   xmlns="http://www.w3.org/2000/svg"
   xmlns:sodipodi="http://sodipodi.sourceforge.net/DTD/sodipodi-0.dtd"
   xmlns:inkscape="http://www.inkscape.org/namespaces/inkscape"
   width="27.441713"
   height="24.185886"
   id="svg2"
   version="1.1"
   inkscape:version="0.48.3.1 r9886"
   sodipodi:docname="logo_ETSCaminosAC.svg">
  <defs
     id="defs4" />
  <sodipodi:namedview
     id="base"
     pagecolor="#ffffff"
     bordercolor="#666666"
     borderopacity="1.0"
     inkscape:pageopacity="0.0"
     inkscape:pageshadow="2"
     inkscape:zoom="19.208837"
     inkscape:cx="20.504797"
     inkscape:cy="13.407058"
     inkscape:document-units="px"
     inkscape:current-layer="layer1"
     showgrid="false"
     inkscape:window-width="1366"
     inkscape:window-height="692"
     inkscape:window-x="0"
     inkscape:window-y="24"
     inkscape:window-maximized="1"
     fit-margin-top="0"
     fit-margin-left="0"
     fit-margin-right="0"
     fit-margin-bottom="0" />
  <metadata
     id="metadata7">
    <rdf:RDF>
      <cc:Work
         rdf:about="">
        <dc:format>image/svg+xml</dc:format>
        <dc:type
           rdf:resource="http://purl.org/dc/dcmitype/StillImage" />
        <dc:title />
      </cc:Work>
    </rdf:RDF>
  </metadata>
  <g
     inkscape:label="Capa 1"
     inkscape:groupmode="layer"
     id="layer1"
     transform="translate(-115.40835,-1155.9542)">
    <path
       style="fill:#ffffff;fill-opacity:1"
       d="m 123.44821,1179.9591 c -0.19312,-0.1509 -0.27888,-0.3766 -0.21065,-0.5544 0.096,-0.2502 -0.0256,-0.2999 -0.73399,-0.2999 -0.72577,0 -0.84905,-0.054 -0.84905,-0.368 0,-0.2417 -0.20569,-0.453 -0.59897,-0.6154 -0.57913,-0.239 -0.5849,-0.2517 -0.17416,-0.3847 0.62372,-0.2019 0.40166,-0.5225 -0.62444,-0.9017 -0.49837,-0.184 -0.96625,-0.3935 -1.03969,-0.4653 -0.14899,-0.1457 2.56227,0.052 3.49697,0.2552 0.84603,0.1838 0.77083,-0.1894 -0.13089,-0.6494 -0.98852,-0.5043 -3.63277,-0.5462 -3.72658,-0.059 -0.0489,0.2544 -0.11935,0.2232 -0.37418,-0.1657 l -0.31382,-0.479 0.72925,0.098 c 0.5993,0.08 0.72924,0.042 0.72924,-0.2123 0,-0.1803 -0.27018,-0.4231 -0.64504,-0.5796 -0.35477,-0.1483 -0.64504,-0.3111 -0.64504,-0.3618 0,-0.051 0.303,0.035 0.67333,0.1893 0.74896,0.3129 1.08046,0.1993 0.55013,-0.1885 -0.29515,-0.2157 -1.32066,-2.1152 -1.14204,-2.1152 0.0355,0 0.33054,0.4146 0.65577,0.9215 0.32523,0.5067 0.6656,0.9215 0.75639,0.9215 0.2333,0 0.20477,-0.2488 -0.0645,-0.5622 -0.12626,-0.1469 0.20358,0.1424 0.73295,0.6432 0.52938,0.5006 1.01657,0.8563 1.08262,0.7902 0.0661,-0.066 -0.13937,-0.5245 -0.4565,-1.0186 -0.31713,-0.4942 -0.57659,-1.0634 -0.57659,-1.265 0,-0.2015 -0.20734,-0.5612 -0.46075,-0.7993 -0.25341,-0.2381 -0.46074,-0.5416 -0.46074,-0.6747 0,-0.197 -1.07674,-0.7997 -1.42872,-0.7997 -0.0514,0 -0.0533,0.3575 -0.003,0.7945 l 0.0896,0.7944 -0.4183,-0.4183 c -0.43082,-0.4309 -1.30158,-0.7489 -1.50184,-0.5488 -0.0623,0.062 0.0437,0.2865 0.23536,0.4984 0.20657,0.2282 0.32691,0.5912 0.29543,0.8911 -0.0303,0.2897 0.0697,0.6082 0.23397,0.7444 0.15787,0.1311 0.28704,0.3174 0.28704,0.4141 0,0.4211 -0.98281,-1.0448 -1.37989,-2.0579 l -0.43569,-1.1119 0.63135,0 c 0.52367,0 0.63134,-0.068 0.63134,-0.3971 0,-0.2186 -0.20733,-0.6692 -0.46074,-1.0015 -0.60453,-0.7925 -0.59357,-1.0623 0.0144,-0.3521 0.48166,0.5628 0.53037,0.394 0.15966,-0.553 -0.13875,-0.3542 -0.1301,-0.3561 0.22398,-0.046 0.54468,0.477 0.6157,0.4111 0.6157,-0.5715 0,-1.0202 -0.30863,-2.0542 -0.69995,-2.3452 -0.43996,-0.3272 -0.1228,-0.9649 0.42755,-0.8596 0.41931,0.08 0.45873,0.028 0.48179,-0.6254 0.015,-0.4261 0.0572,-0.5459 0.10496,-0.2979 0.11394,0.5915 0.54141,0.5129 0.66859,-0.123 0.0591,-0.2957 0.35978,-0.9477 0.66807,-1.4487 0.31204,-0.5071 0.56056,-1.1675 0.56056,-1.4896 0,-0.6405 -0.24045,-0.7513 -0.55537,-0.256 -0.17094,0.2687 -0.18723,0.238 -0.0978,-0.1844 0.0811,-0.3832 0.0367,-0.5068 -0.18204,-0.5068 -0.22447,0 -0.17934,-0.1442 0.20129,-0.6432 0.53343,-0.6994 0.81821,-0.6962 0.81821,0.01 0,0.2475 0.0742,0.4498 0.16468,0.4498 0.0906,0 0.67801,-0.5022 1.3054,-1.1161 1.0037,-0.9821 1.95234,-1.6047 2.14762,-1.4094 0.16872,0.1687 -0.53922,2.2531 -0.9467,2.7873 -0.55986,0.734 -0.57773,0.9845 -0.0758,1.0616 0.36176,0.055 0.34517,0.1172 -0.29092,1.0807 -0.37101,0.5621 -0.9166,1.184 -1.21243,1.3823 -0.6535,0.4379 -0.69749,0.8211 -0.0943,0.8211 0.31555,0 0.76225,-0.3552 1.53836,-1.2236 1.06098,-1.1868 1.09106,-1.2054 1.00534,-0.6215 -0.0652,0.4437 -0.0244,0.5806 0.15487,0.5209 0.33905,-0.113 0.64463,-1.0791 0.39092,-1.2359 -0.19216,-0.1187 -0.17098,-0.261 0.32216,-2.1638 0.0823,-0.3176 0.2049,-0.6667 0.27253,-0.7761 0.1944,-0.3146 1.32909,-0.4588 1.70739,-0.2169 0.26159,0.1672 0.26906,0.1948 0.0331,0.1224 -0.16754,-0.051 -0.43532,0.01 -0.59507,0.1243 -0.2612,0.1957 -0.25191,0.2781 0.0923,0.8167 0.47847,0.7487 1.37674,0.8586 1.50661,0.1843 0.0495,-0.2567 0.0894,-0.1514 0.10496,0.2765 0.037,1.0191 0.3937,0.8416 0.3937,-0.1959 0,-0.7342 -0.0903,-0.9736 -0.52413,-1.3892 -0.66946,-0.6414 -1.64722,-0.8116 -2.42709,-0.4226 -0.47463,0.2368 -0.54495,0.2419 -0.36612,0.027 0.28953,-0.3488 1.30938,-0.5327 2.11588,-0.3814 1.41424,0.2654 2.0997,2.178 1.30763,3.6488 -0.3452,0.6411 -0.34573,0.682 -0.0201,1.5521 0.48791,1.3041 0.5572,1.3545 1.86252,1.3545 0.91625,0 1.20647,-0.068 1.35406,-0.3225 0.14579,-0.2503 0.18911,-0.1151 0.19345,0.604 0.009,1.3849 0.70768,2.1779 1.2957,1.4693 0.36098,-0.4349 0.64474,-0.3273 0.88445,0.3356 0.60433,1.6713 -0.0373,3.5914 -1.30646,3.91 -0.32933,0.083 -0.45342,0.239 -0.45342,0.5712 0,0.3072 0.0814,0.4262 0.24752,0.3625 0.41299,-0.1584 0.45838,0.1869 0.0706,0.5379 -0.20033,0.1813 -0.36425,0.3997 -0.36425,0.4853 0,0.628 1.76828,-0.8663 2.30886,-1.9511 0.89686,-1.7997 0.56971,-3.6401 -1.18161,-6.6472 -0.67086,-1.1519 -0.91717,-1.4199 -1.16451,-1.2671 -0.0808,0.05 -0.14703,0 -0.14703,-0.1043 0,-0.252 0.0761,-0.2464 0.78918,0.058 0.73666,0.3143 1.38618,0.8822 1.29915,1.1358 -0.0783,0.2283 1.00373,1.7442 1.24496,1.7442 0.25446,0 0.20208,-0.4228 -0.10706,-0.8641 -0.26853,-0.3834 -0.2621,-0.3882 0.25786,-0.1919 0.32055,0.1209 0.49605,0.2982 0.43999,0.4443 -0.059,0.1535 0.0489,0.2431 0.29286,0.2431 0.25518,0 0.37698,-0.1094 0.35911,-0.3226 -0.0149,-0.1774 -0.009,-0.7372 0.0136,-1.244 l 0.0406,-0.9215 0.39863,0.7939 c 0.28374,0.5652 0.48895,0.7704 0.71204,0.712 0.3224,-0.085 0.49202,0.2168 0.86465,1.535 0.3062,1.0832 0.39223,1.8574 0.4199,3.7781 0.0249,1.7308 0.0411,1.8037 0.26458,1.1979 0.54964,-1.4893 0.19176,-5.2016 -0.65927,-6.8388 -0.34122,-0.6565 -1.49705,-2.0423 -1.60953,-1.9298 -0.0538,0.054 0.009,0.2262 0.13902,0.3832 0.13026,0.1569 0.19648,0.3256 0.14716,0.3749 -0.0493,0.049 -0.46323,-0.3881 -0.91979,-0.972 -1.3556,-1.7338 -1.69045,-2.57 -0.60959,-1.5224 0.35477,0.3438 0.64504,0.7647 0.64504,0.9351 0,0.1704 0.1244,0.4131 0.27645,0.5392 0.15204,0.1263 0.27644,0.1634 0.27644,0.083 0,-0.08 0.20734,0.048 0.46074,0.286 0.25341,0.2381 0.46075,0.3384 0.46075,0.2229 0,-0.2467 -0.7347,-1.1406 -2.30359,-2.803 -1.23154,-1.305 -2.34404,-2.7404 -1.92261,-2.4807 0.14509,0.089 0.77298,0.5183 1.39529,0.9531 0.6223,0.4347 1.22358,0.7904 1.33615,0.7904 0.25251,0 0.26192,-0.3783 0.025,-1.0016 -0.0988,-0.26 -0.14709,-0.4728 -0.10721,-0.4728 0.0399,0 0.86769,1.0781 1.83956,2.3959 0.97186,1.3176 1.83874,2.3958 1.92638,2.3958 0.0876,0 0.22127,-0.5183 0.29694,-1.1518 l 0.13759,-1.1519 0.24079,0.6451 c 0.13243,0.3547 0.24415,0.8938 0.24827,1.1979 l 0.008,0.5529 -0.26338,-0.4608 -0.26339,-0.4607 -0.007,0.5529 c -0.003,0.3041 0.12889,1.5124 0.2947,2.685 0.28804,2.0371 0.23714,4.9628 -0.0864,4.9637 -0.0674,2e-4 -0.0967,-0.9065 -0.0652,-2.0147 0.0625,-2.1972 -0.22645,-3.5269 -1.17848,-5.4229 -0.45001,-0.896 -1.74865,-2.7473 -1.85362,-2.6424 -0.0267,0.027 0.35474,0.875 0.84772,1.8849 0.49297,1.0101 1.06648,2.343 1.27447,2.9622 0.53328,1.5876 0.85539,4.2318 0.61498,5.0482 l -0.18991,0.6451 -0.0307,-0.8294 c -0.0263,-0.7109 -0.0897,-0.5516 -0.44416,1.1158 -0.22743,1.0697 -0.47647,2.0469 -0.55344,2.1714 -0.077,0.1246 -0.21346,0.4829 -0.30333,0.7962 -0.15699,0.5474 -0.14995,0.5576 0.17977,0.2593 0.26583,-0.2407 0.36231,-0.2562 0.42812,-0.069 0.0508,0.1447 0.25062,-0.035 0.49806,-0.4496 0.22722,-0.38 0.44852,-0.691 0.4918,-0.691 0.13677,0 -0.50167,1.1583 -1.24327,2.2555 -0.39314,0.5817 -0.7148,1.1001 -0.7148,1.1519 0,0.3329 0.42999,-0.077 1.291,-1.2316 0.87495,-1.1729 2.68589,-4.7871 3.0295,-6.046 l 0.12575,-0.4608 -0.38475,0.4608 c -0.2116,0.2534 -0.59853,0.9014 -0.85984,1.44 -0.2613,0.5387 -0.50159,0.9529 -0.53399,0.9204 -0.0324,-0.033 0.18242,-0.8877 0.47737,-1.9008 0.63515,-2.1816 0.69877,-2.8956 0.17232,-1.9341 l -0.35315,0.6452 -0.009,-0.8294 c -0.005,-0.4562 -0.0507,-1.4099 -0.10147,-2.1194 -0.0957,-1.3353 -0.0204,-1.4313 0.18047,-0.2304 0.12352,0.7385 0.54837,0.9387 0.73622,0.3468 0.0601,-0.1894 0.28404,-0.5004 0.49766,-0.691 0.38151,-0.3407 0.38634,-0.3404 0.27359,0.023 -0.25886,0.8336 -0.81498,3.6912 -0.7344,3.7735 0.0478,0.048 0.33025,-0.05 0.62781,-0.2218 0.29753,-0.1707 0.54098,-0.2932 0.54098,-0.2722 0,0.021 -0.20734,0.6099 -0.46075,1.3085 -0.53816,1.4838 -0.5654,1.7691 -0.16894,1.7691 0.16051,0 0.26357,0.062 0.22906,0.1382 -1.43881,3.1691 -3.20591,5.5123 -5.10778,6.7729 -0.71365,0.4731 -1.0846,0.8363 -1.03536,1.0136 0.0485,0.1749 -0.15751,0.3866 -0.55999,0.5758 -0.3502,0.1645 -0.63673,0.2247 -0.63673,0.1336 0,-0.091 0.20734,-0.2444 0.46075,-0.3407 0.6108,-0.2323 0.58234,-0.3366 -0.17838,-0.6545 -1.30561,-0.5455 -2.76286,-0.1618 -2.77894,0.7316 -0.008,0.4076 0.0719,0.477 0.55288,0.4838 0.30881,0.01 0.89051,0.1253 1.29268,0.2685 0.56483,0.2012 0.76339,0.2099 0.87259,0.038 0.0888,-0.1397 0.14242,-0.061 0.1442,0.2116 0.003,0.3955 -0.0626,0.4278 -0.7337,0.3637 -0.63751,-0.061 -0.72254,-0.027 -0.63265,0.2571 0.15069,0.4747 -0.64837,0.7418 -1.43447,0.4794 -0.84791,-0.2831 -1.05704,-0.5207 -0.45843,-0.5207 0.81754,0 0.5683,-0.2933 -0.61599,-0.7252 -1.3602,-0.4959 -1.84912,-0.4032 -0.77544,0.1471 0.43079,0.2207 0.78326,0.4257 0.78326,0.4555 0,0.029 -0.51834,0.019 -1.15187,-0.024 -0.83767,-0.057 -1.26721,-0.1842 -1.57476,-0.4663 l -0.42292,-0.3879 -0.54142,0.5792 c -0.58648,0.6276 -0.69044,0.6731 -2.20655,0.9656 -0.5575,0.1075 -1.22096,0.2372 -1.47437,0.2882 -0.25341,0.052 -0.60732,-0.022 -0.78648,-0.1617 z m 2.80714,-0.9213 c 0.84333,-0.4424 1.62814,-0.9815 1.74404,-1.1981 0.2007,-0.375 0.22606,-0.3784 0.53338,-0.071 0.2822,0.2822 0.3446,0.2879 0.49749,0.046 0.0961,-0.152 0.17607,-0.5045 0.17763,-0.7832 0.003,-0.4682 -0.0529,-0.5068 -0.72788,-0.5068 -0.7664,0 -1.11227,0.3323 -1.11227,1.0686 0,0.2557 -0.24592,0.4471 -0.87542,0.6811 -1.20765,0.4492 -2.07334,0.9945 -2.07334,1.3062 0,0.385 0.15422,0.3394 1.83637,-0.5428 z m -2.65063,-0.3015 c 0.83048,0 0.99752,-0.054 0.99242,-0.3226 -0.003,-0.1774 -0.15238,-0.4974 -0.33112,-0.7113 -0.30504,-0.365 -0.39168,-0.3755 -1.41091,-0.172 -0.59727,0.1192 -1.11866,0.315 -1.15862,0.4349 -0.04,0.1199 0.0171,0.218 0.12697,0.218 0.10981,0 0.19965,0.1747 0.19965,0.3884 0,0.2783 0.0826,0.3566 0.29152,0.2764 0.16034,-0.061 0.74088,-0.1118 1.29009,-0.1118 z m 1.44283,-1.7509 c -0.13981,-0.557 0.0839,-0.586 0.71181,-0.092 0.71212,0.5602 1.09979,0.4626 0.69624,-0.1754 -0.23077,-0.3648 -0.0355,-0.6286 0.27465,-0.3712 0.13815,0.1147 0.37957,0.1809 0.53647,0.1472 0.42971,-0.092 -0.27609,-1.1589 -1.02224,-1.5447 l -0.58668,-0.3034 -0.7113,0.8012 c -0.76614,0.863 -0.90399,1.5004 -0.38929,1.8002 0.5048,0.294 0.61505,0.2351 0.49034,-0.2617 z m 6.2662,-0.1842 c 0.70131,-0.535 1.45239,-0.6312 1.27273,-0.1629 -0.0974,0.2537 -0.0555,0.2663 0.28223,0.086 0.52711,-0.2821 0.50461,-0.4001 -0.21839,-1.1445 -0.4668,-0.4806 -0.76555,-0.6317 -1.24024,-0.6272 -0.54681,0.01 -0.68201,0.1087 -1.07687,0.8242 -0.30581,0.5542 -0.38139,0.8416 -0.23415,0.8908 0.11959,0.04 0.21743,0.19 0.21743,0.3336 0,0.3833 0.31574,0.3201 0.99726,-0.1996 z m -9.75138,0 c -0.59089,-0.2613 -0.75585,-0.2384 -0.56047,0.078 0.0668,0.108 0.34466,0.1897 0.61742,0.1815 l 0.49595,-0.015 -0.5529,-0.2445 z m 15.50203,-0.6383 c 1.11825,-0.6414 2.72644,-2.3622 3.43525,-3.6757 0.27914,-0.5173 0.4736,-0.9406 0.43211,-0.9406 -0.0415,0 -0.50316,0.577 -1.02595,1.2822 -1.02625,1.3843 -2.67703,2.9879 -3.52979,3.4289 -0.51402,0.2658 -0.67644,0.4511 -0.39238,0.4475 0.076,0 0.56236,-0.245 1.08076,-0.5423 z m -2.09175,-0.8576 c 0.61864,-0.872 1.03399,-2.7928 0.74154,-3.4292 -0.18075,-0.3934 -0.20163,-0.3723 -0.31198,0.3156 -0.2254,1.4049 -0.72736,2.6816 -1.33214,3.3882 -0.33422,0.3904 -0.5547,0.7629 -0.48998,0.8275 0.18955,0.1896 0.84313,-0.3276 1.39256,-1.1021 z m -5.64498,0.6645 c 0.0137,-0.1521 0.0344,-0.4265 0.0461,-0.6099 0.0118,-0.1834 0.10127,-0.284 0.19908,-0.2235 0.0978,0.06 0.74053,-0.2071 1.4283,-0.5946 0.68777,-0.3875 1.44637,-0.7178 1.68578,-0.7342 0.23941,-0.016 0.57575,-0.1378 0.74741,-0.2699 0.17166,-0.1322 0.0716,-0.01 -0.22251,0.2797 -0.62044,0.6033 -0.53798,0.8663 0.13364,0.4263 0.93554,-0.613 1.76278,-1.4552 1.76278,-1.7947 0,-0.3113 -0.14749,-0.3495 -1.35205,-0.3495 l -1.35205,0 -0.81345,1.1936 -0.81344,1.1935 -1.86048,0.01 c -1.70536,0.01 -1.88976,-0.03 -2.21157,-0.4102 -0.34805,-0.4111 -0.3479,-0.4121 0.0175,-0.1189 0.27305,0.2191 0.79806,0.2998 2.02548,0.311 1.73075,0.016 2.07895,-0.1156 2.52779,-0.9543 0.1613,-0.3013 0.13428,-0.3374 -0.1893,-0.2528 -0.3202,0.084 -0.44594,-0.073 -0.82902,-1.0327 -0.24837,-0.6223 -0.63524,-1.7295 -0.85972,-2.4603 -0.41992,-1.3671 -0.78165,-1.9079 -1.01911,-1.5237 -0.0701,0.1136 -0.0744,0.5607 -0.009,0.9937 0.0952,0.6346 0.0456,0.8731 -0.25552,1.2308 l -0.37359,0.4437 0.28384,-0.5905 c 0.40859,-0.8503 0.0791,-2.0818 -0.55696,-2.0818 -0.51389,0 -2.00678,1.0803 -2.08997,1.5123 -0.0315,0.1632 0.17551,0.5197 0.4599,0.7922 l 0.51707,0.4954 -0.58981,-0.2942 c -0.73176,-0.3649 -0.97672,-0.3711 -0.97672,-0.025 0,0.478 0.75202,0.9887 2.09632,1.4241 l 1.31316,0.4251 -1.0597,0.056 c -0.85161,0.045 -1.06013,0.1173 -1.06187,0.3691 -0.002,0.1764 -0.25244,-0.07 -0.5747,-0.5621 -0.31489,-0.4815 -0.68712,-0.8754 -0.82716,-0.8754 -0.31341,0 -0.32779,0.2217 -0.0335,0.5161 0.17201,0.1719 -0.0532,0.221 -1.01363,0.221 -1.27052,0 -1.54329,0.1906 -0.82393,0.5756 0.22598,0.1209 0.52218,0.3312 0.6582,0.4673 0.33259,0.3325 0.45103,0.315 1.07156,-0.1582 0.47775,-0.3644 0.49895,-0.3675 0.20917,-0.032 -0.42196,0.4891 -0.41007,0.6812 0.0277,0.4469 0.50267,-0.269 0.6489,0.2315 0.18916,0.6475 -0.4398,0.398 -0.33711,0.5505 0.18323,0.272 0.31777,-0.1702 0.53917,-0.1163 1.25978,0.306 0.48086,0.2818 0.89499,0.4923 0.92034,0.4678 0.0253,-0.024 0.15612,-0.045 0.2906,-0.045 0.16933,0 0.21839,0.1781 0.15954,0.5791 -0.0559,0.3804 -0.0176,0.5375 0.11133,0.4577 0.10798,-0.066 0.25135,-0.033 0.31861,0.077 0.1789,0.2894 1.09676,0.1331 1.12594,-0.1919 z m -0.9463,-2.2116 0.55289,-0.1408 -0.58171,-0.022 c -0.49426,-0.018 -0.56664,-0.08 -0.48144,-0.4053 0.0744,-0.2846 0.20062,-0.3564 0.48957,-0.2789 0.2141,0.057 0.53349,0.1056 0.70974,0.107 0.22858,0 0.30952,0.1346 0.28232,0.4632 -0.0342,0.4131 -0.11502,0.4585 -0.78119,0.439 -0.71461,-0.021 -0.7219,-0.028 -0.19018,-0.1625 z m 4.14669,-0.069 c 0,-0.039 0.14514,-0.1834 0.32252,-0.3225 0.2923,-0.2292 0.29883,-0.2228 0.0696,0.069 -0.24075,0.307 -0.3921,0.4046 -0.3921,0.253 z m -3.71011,-1.4678 c 0.11289,-0.1361 0.1507,-0.3019 0.084,-0.3686 -0.0667,-0.066 0.008,-0.1213 0.16618,-0.1213 0.23899,0 0.51118,0.3515 0.51118,0.6602 0,0.042 -0.21749,0.077 -0.48331,0.077 -0.38343,0 -0.44089,-0.051 -0.27805,-0.2472 z m -2.22196,-1.353 c 0.13304,-0.054 0.292,-0.047 0.35324,0.015 0.0612,0.061 -0.0476,0.1049 -0.24189,0.097 -0.2147,-0.01 -0.25836,-0.053 -0.11135,-0.1114 z m -3.0141,4.1584 c -0.16441,-0.4441 -0.34162,-0.9854 -0.39383,-1.2031 -0.12544,-0.523 -1.26248,-1.6146 -1.51762,-1.457 -0.11012,0.068 -0.20022,0.2752 -0.20022,0.4603 0,0.6217 0.60254,2.2097 0.96184,2.5349 0.34537,0.3124 0.35237,0.3058 0.23736,-0.2259 -0.129,-0.5963 -0.0926,-0.5693 0.75767,0.563 0.45794,0.6098 0.52374,0.3242 0.1548,-0.6722 z m 1.17113,0.2179 c 0.0461,-0.1382 -0.0231,-0.2073 -0.16126,-0.1613 -0.13305,0.045 -0.27819,0.1895 -0.32253,0.3226 -0.0461,0.1382 0.0231,0.2073 0.16127,0.1612 0.13304,-0.045 0.27818,-0.1895 0.32252,-0.3225 z m -4.20428,-0.288 c 0,-0.152 -0.11951,-0.2764 -0.26558,-0.2764 -0.30789,0 -0.51573,0.263 -0.34373,0.435 0.22025,0.2203 0.60931,0.1191 0.60931,-0.1586 z m 17.32394,-1.0819 c 0,-0.2397 -0.90388,0.6137 -1.14582,1.0819 -0.11498,0.2225 0.0744,0.1168 0.47767,-0.2665 0.36748,-0.3494 0.66815,-0.7162 0.66815,-0.8154 z m -0.0754,0.8529 c -0.12782,-0.1278 -0.47747,0.132 -0.47747,0.3547 0,0.1221 0.10575,0.1082 0.2809,-0.037 0.1545,-0.1281 0.24295,-0.271 0.19657,-0.3174 z m -0.85045,-2.494 c 0.43552,-1.8873 0.0835,-4.7002 -0.7109,-5.6813 -0.33795,-0.4173 -0.33942,-0.4054 -0.0943,0.765 0.3372,1.61 0.33067,2.0351 -0.0291,1.897 -0.23364,-0.09 -0.2621,-0.013 -0.15592,0.4205 0.0714,0.2915 0.21279,0.5844 0.3141,0.6506 0.17551,0.1148 0.10864,1.4299 -0.16255,3.1968 l -0.11314,0.7372 0.38607,-0.6036 c 0.21234,-0.332 0.46693,-0.9539 0.56575,-1.3822 z m 0.80698,-0.091 c 0.21691,-0.563 0.30319,-1.3781 0.30319,-2.864 0,-2.4051 -0.29549,-3.7614 -1.12279,-5.1537 -0.31474,-0.5298 -0.51481,-0.7972 -0.44459,-0.5945 0.48594,1.4031 0.69371,2.5083 0.86601,4.6067 0.18866,2.2976 0.12932,3.1788 -0.32894,4.8846 -0.10974,0.4084 -0.0927,0.4294 0.15007,0.1843 0.15062,-0.152 0.41029,-0.6306 0.57705,-1.0634 z m 1.04038,0.4888 c 0,-0.1014 -0.0829,-0.1331 -0.18429,-0.07 -0.10137,0.062 -0.1843,0.1968 -0.1843,0.2981 0,0.1015 0.0829,0.1331 0.1843,0.07 0.10136,-0.063 0.18429,-0.1969 0.18429,-0.2982 z m -17.69438,-1.004 c -0.13741,-0.9056 -0.56413,-1.4977 -0.92053,-1.2775 -0.31368,0.1939 -0.10004,1.0513 0.40559,1.628 0.23353,0.2663 0.4737,0.4857 0.53364,0.4876 0.0599,0 0.0515,-0.3753 -0.0187,-0.8381 z m 2.57801,-0.073 c 0.1063,-0.1986 0.17933,-0.4267 0.16232,-0.5068 -0.0169,-0.08 0.10626,-0.4541 0.27396,-0.8309 0.1677,-0.3768 0.30491,-0.7707 0.30491,-0.8754 0,-0.1046 0.1158,-0.1902 0.25735,-0.1902 0.14154,0 0.49401,-0.2696 0.78326,-0.5991 0.28926,-0.3293 0.60884,-0.622 0.71021,-0.6502 0.10136,-0.028 0.49529,-0.1351 0.87541,-0.2375 0.38012,-0.1024 0.69239,-0.2866 0.69394,-0.4094 0.003,-0.1495 0.0567,-0.1381 0.16612,0.035 0.11798,0.1863 0.38573,0.228 0.96474,0.1503 0.52575,-0.07 0.95993,-0.019 1.26218,0.1502 0.64584,0.3614 1.06048,0.3313 1.28781,-0.093 0.16942,-0.3165 0.11204,-0.399 -0.43731,-0.6285 -0.34778,-0.1454 -1.17002,-0.3218 -1.82722,-0.3922 -1.04931,-0.1124 -1.2191,-0.086 -1.39356,0.2139 -0.10927,0.188 -0.2012,0.2382 -0.20428,0.1115 -0.003,-0.1267 -0.21705,-0.2304 -0.47551,-0.2304 -0.59852,0 -1.60384,0.5129 -1.46037,0.7451 0.06,0.097 -0.0877,0.1764 -0.32808,0.1764 -0.45772,0 -1.58538,1.0094 -1.36917,1.2256 0.068,0.068 -0.061,0.2158 -0.28682,0.3284 -0.22578,0.1126 -0.49294,0.4391 -0.59367,0.7255 -0.1526,0.4339 -0.12238,0.5672 0.18123,0.7984 0.35617,0.2713 0.35518,0.2748 -0.0442,0.1558 -0.33537,-0.1 -0.43076,-0.033 -0.5326,0.3728 -0.10367,0.4129 -0.15168,0.445 -0.29174,0.1948 -0.23994,-0.4288 -0.88655,-0.387 -0.88655,0.057 0,0.2646 0.15498,0.3761 0.59897,0.4312 1.24273,0.1542 1.41739,0.1295 1.6086,-0.2278 z m 11.06183,-0.1 c 0,-0.3657 -0.0929,-0.4607 -0.44986,-0.4607 -0.24743,0 -0.50358,0.087 -0.56922,0.1931 -0.2141,0.3464 0.0756,0.7284 0.55256,0.7284 0.37476,0 0.46652,-0.091 0.46652,-0.4608 z m 6.59911,-0.5578 c -0.0568,-0.057 -0.15979,0.046 -0.229,0.2273 -0.10002,0.2627 -0.0788,0.2839 0.10317,0.1032 0.12595,-0.125 0.18257,-0.2737 0.12583,-0.3305 z m -18.7953,-0.5172 c 0.0402,-0.2072 -0.0648,-0.3073 -0.32252,-0.3073 -0.21016,0 -0.38211,0.1106 -0.38211,0.2457 0,0.5646 0.59699,0.6166 0.70463,0.061 z m -4.94346,-0.031 c 0,-0.152 -0.0829,-0.2764 -0.1843,-0.2764 -0.10136,0 -0.18429,0.1244 -0.18429,0.2764 0,0.1521 0.0829,0.2764 0.18429,0.2764 0.10137,0 0.1843,-0.1243 0.1843,-0.2764 z m 4.05455,0 c 0,-0.1536 -0.16383,-0.2764 -0.3686,-0.2764 -0.36716,0 -0.47938,0.1963 -0.24572,0.43 0.22445,0.2244 0.61432,0.127 0.61432,-0.1536 z m -2.21157,-0.7525 c 0,-0.3255 -0.39676,-0.2688 -0.51065,0.073 -0.0401,0.1204 0.0584,0.2189 0.21885,0.2189 0.16048,0 0.2918,-0.1313 0.2918,-0.2917 z m 3.08978,-0.1594 c -0.0718,-0.3759 -0.006,-0.4604 0.39318,-0.5068 0.82128,-0.095 0.59056,-0.6005 -0.30384,-0.6652 -0.68606,-0.05 -0.78327,-0.01 -0.78327,0.3225 0,0.2085 -0.0752,0.3792 -0.16704,0.3792 -0.0919,0 -0.12366,-0.1658 -0.0706,-0.3686 0.0861,-0.3294 0.006,-0.3686 -0.75445,-0.3686 -0.72796,0 -0.85083,0.053 -0.85083,0.3686 0,0.3005 0.12772,0.3713 0.69111,0.3831 0.38012,0.01 0.58745,0.057 0.46075,0.1075 -0.1267,0.052 -0.23037,0.2519 -0.23037,0.4463 0,0.297 0.1352,0.3532 0.85082,0.3532 0.80333,0 0.846,-0.025 0.76458,-0.4512 z m 8.19842,-0.1375 c -0.22243,-0.2225 -0.46001,-0.349 -0.52795,-0.281 -0.17932,0.1794 0.29143,0.6853 0.63755,0.6853 0.23696,0 0.21544,-0.08 -0.1096,-0.4043 z m 4.71057,0.082 c -0.0341,-0.1774 -0.18423,-0.3226 -0.3335,-0.3226 -0.14928,0 -0.29935,0.1452 -0.33352,0.3226 -0.0436,0.2263 0.0559,0.3225 0.33352,0.3225 0.27757,0 0.37708,-0.096 0.3335,-0.3225 z m -17.00202,-0.9226 c 0.006,-0.5822 0.11466,-1.2245 0.24206,-1.4272 0.20085,-0.3195 0.21756,-0.2644 0.12564,0.4147 -0.0993,0.7339 0.0873,1.0387 0.3629,0.5928 0.0648,-0.1047 0.42209,-0.1669 0.79414,-0.1382 0.50162,0.039 0.67644,-0.019 0.67644,-0.2242 0,-0.1901 -0.1648,-0.2647 -0.52737,-0.239 l -0.52736,0.038 0.12535,-1.1707 c 0.0689,-0.644 0.0528,-1.2155 -0.0358,-1.2703 -0.32129,-0.1986 -1.06989,0.3659 -1.48624,1.1206 -0.61038,1.1065 -0.59566,3.3667 0.022,3.3636 0.14111,0 0.22162,-0.3742 0.22835,-1.0596 z m 13.80274,0.8913 c 0.15611,-0.2525 -1.20797,-1.3049 -1.6915,-1.3049 -0.58781,0 -0.52359,0.432 0.14829,0.9973 0.56453,0.4751 1.34376,0.6303 1.54321,0.3076 z m -12.54273,-0.6158 c 0.10501,-0.1665 0.13369,-0.36 0.0637,-0.43 -0.17534,-0.1754 -0.68905,0.2781 -0.68905,0.6083 0,0.3335 0.36879,0.2284 0.62536,-0.1783 z m 13.21503,-0.2501 c 0.21403,-0.2579 0.17346,-0.3574 -0.29996,-0.7363 -0.67355,-0.5389 -0.94737,-0.5533 -1.10455,-0.058 -0.1418,0.4468 0.35447,1.0925 0.83952,1.0925 0.17461,0 0.42886,-0.1342 0.56499,-0.2982 z m 3.26418,-0.024 c -0.0425,-0.2208 -0.23474,-0.3225 -0.60996,-0.3225 -0.37523,0 -0.56742,0.1017 -0.60996,0.3225 -0.05,0.2595 0.0691,0.3225 0.60996,0.3225 0.54086,0 0.65994,-0.062 0.60996,-0.3225 z m -13.67778,-0.6269 c 0.0721,-0.1167 -0.0218,-0.3241 -0.20866,-0.4607 -0.30961,-0.2265 -0.28342,-0.2492 0.29438,-0.256 1.25681,-0.015 2.58274,-0.1289 2.68558,-0.2317 0.29738,-0.2974 -0.26744,-0.4424 -1.76827,-0.4543 -1.52292,-0.012 -1.66537,0.017 -1.66537,0.3402 0,0.1943 -0.0737,0.3532 -0.16381,0.3532 -0.0901,0 -0.1523,-0.1451 -0.13823,-0.3225 0.0369,-0.4645 -1.23208,-0.4645 -1.32153,0 -0.0487,0.2528 0.0703,0.3257 0.55036,0.3371 0.33687,0.01 0.50881,0.057 0.38211,0.1075 -0.1267,0.051 -0.23038,0.252 -0.23038,0.4462 0,0.2883 0.1334,0.3532 0.72632,0.3532 0.39947,0 0.78534,-0.096 0.8575,-0.2122 z m 1.31886,0.096 c 0.72,-0.193 0.4977,-0.6211 -0.32252,-0.6211 -0.61431,0 -0.73718,0.061 -0.73718,0.3687 0,0.3843 0.30038,0.4558 1.0597,0.2524 z m 11.47252,-0.3446 c 0,-0.1521 -0.0829,-0.2765 -0.1843,-0.2765 -0.10137,0 -0.1843,0.1244 -0.1843,0.2765 0,0.152 0.0829,0.2764 0.1843,0.2764 0.10135,0 0.1843,-0.1244 0.1843,-0.2764 z m -2.76446,-0.9215 c 0,-0.1843 -0.18431,-0.2765 -0.55289,-0.2765 -0.86277,0 -0.64939,0.4987 0.23037,0.5383 0.17738,0.01 0.32252,-0.1098 0.32252,-0.2618 z m 0.73718,0.092 c 0,-0.1014 -0.1244,-0.1843 -0.27644,-0.1843 -0.15204,0 -0.27645,0.083 -0.27645,0.1843 0,0.1014 0.12441,0.1844 0.27645,0.1844 0.15204,0 0.27644,-0.083 0.27644,-0.1844 z m 2.26738,-0.09 c 0.02,-0.1001 -0.10879,-0.2098 -0.28618,-0.2439 -0.20173,-0.039 -0.32252,0.051 -0.32252,0.2413 0,0.3206 0.54465,0.3229 0.6087,0 z m -4.11035,-0.8319 c 0,-0.119 -2.00018,-0.1844 -5.63194,-0.1844 -3.70771,0 -5.59304,0.063 -5.51804,0.1844 0.15587,0.2522 11.14998,0.2522 11.14998,0 z m 4.00856,-0.046 c -0.11612,-0.3487 -0.69121,-0.3983 -0.69121,-0.06 0,0.1709 0.15757,0.2899 0.38396,0.2899 0.2252,0 0.35224,-0.095 0.30725,-0.2303 z m 1.33606,-0.046 c 0,-0.1521 -0.1244,-0.2765 -0.27645,-0.2765 -0.15204,0 -0.27644,0.1244 -0.27644,0.2765 0,0.1519 0.1244,0.2764 0.27644,0.2764 0.15205,0 0.27645,-0.1245 0.27645,-0.2764 z m -16.21815,-0.7264 c 0,-0.045 -0.0829,-0.1325 -0.1843,-0.1952 -0.10137,-0.063 -0.18431,-0.026 -0.18431,0.081 0,0.1073 0.0829,0.1951 0.18431,0.1951 0.10135,0 0.1843,-0.036 0.1843,-0.081 z m 2.39585,0 c 0,-0.045 -0.0829,-0.1325 -0.18429,-0.1952 -0.10136,-0.063 -0.1843,-0.026 -0.1843,0.081 0,0.1073 0.0829,0.1951 0.1843,0.1951 0.10136,0 0.18429,-0.036 0.18429,-0.081 z m 4.23885,0 c 0,-0.045 -0.0829,-0.1325 -0.1843,-0.1952 -0.10137,-0.063 -0.1843,-0.026 -0.1843,0.081 0,0.1073 0.0829,0.1951 0.1843,0.1951 0.10136,0 0.1843,-0.036 0.1843,-0.081 z m 2.39586,0 c 0,-0.045 -0.0829,-0.1325 -0.1843,-0.1952 -0.10136,-0.063 -0.1843,-0.026 -0.1843,0.081 0,0.1073 0.0829,0.1951 0.1843,0.1951 0.10136,0 0.1843,-0.036 0.1843,-0.081 z m -11.27371,-0.6703 c 0.0593,-0.4371 0.0547,-0.4388 -0.22451,-0.078 -0.3478,0.4497 -0.37573,0.7017 -0.0664,0.5999 0.1267,-0.042 0.25763,-0.2768 0.29095,-0.5222 z m 12.56379,-0.3313 c 0,-0.089 -2.57095,-0.176 -5.71322,-0.1939 -3.89481,-0.022 -5.71321,0.029 -5.71321,0.1614 0,0.1315 1.83901,0.194 5.71321,0.194 3.14496,0 5.71322,-0.073 5.71322,-0.1615 z m 7.39838,-2.4682 c -0.56867,-1.1674 -1.05924,-1.8334 -2.1282,-2.8894 -0.76404,-0.7546 -1.44349,-1.3179 -1.50989,-1.2514 -0.0665,0.067 0.57391,0.9444 1.42292,1.9514 0.849,1.0068 1.83325,2.3969 2.18721,3.089 0.91901,1.7968 0.94434,0.9816 0.0279,-0.8996 z m -15.49775,1.4061 c 0.10169,-0.2674 0.14162,-0.5296 0.0887,-0.5825 -0.14403,-0.1439 -0.83562,0.5354 -0.83562,0.8209 0,0.4405 0.55631,0.2629 0.7469,-0.2384 z m 3.78749,0.2265 c 0.12721,-0.3315 -0.41693,-1.3981 -0.71496,-1.4014 -0.12411,0 -0.41282,-0.053 -0.64163,-0.1139 -0.32842,-0.088 -0.5709,0.058 -1.15186,0.6934 -0.40471,0.4429 -0.73586,0.8674 -0.73586,0.9434 0,0.076 0.70754,0.1384 1.57232,0.1384 1.18285,0 1.597,-0.064 1.67199,-0.2599 z m -6.4855,-0.036 c 0.15985,-0.061 0.47216,-0.4346 0.69405,-0.8295 0.23294,-0.4144 0.54215,-0.7177 0.73163,-0.7177 0.31645,0 0.70973,-0.5039 0.70973,-0.9094 0,-0.3441 -0.52813,-0.2135 -1.61539,0.3991 -1.26911,0.715 -1.70196,1.0661 -1.70196,1.3805 0,0.301 0.40685,0.3039 0.72288,0.01 0.20089,-0.1899 0.20737,-0.1596 0.0369,0.1721 -0.32582,0.6342 -0.22845,0.7493 0.4222,0.4996 z m 7.57971,-0.2111 c -0.0682,-0.1774 -0.29561,-0.8616 -0.50532,-1.5205 -0.4423,-1.3896 -0.67501,-1.7575 -0.94254,-1.4899 -0.1213,0.1213 -0.12223,0.2657 -0.003,0.4225 0.0999,0.131 0.31684,0.6113 0.48214,1.0674 0.16527,0.4563 0.38485,1.0575 0.48791,1.3362 0.10305,0.2788 0.28125,0.5068 0.39596,0.5068 0.12304,0 0.1577,-0.1323 0.0845,-0.3225 z m -2.12695,-1.5205 c 0,-0.1013 -0.0878,-0.1842 -0.19517,-0.1842 -0.10736,0 -0.14393,0.083 -0.0813,0.1842 0.0627,0.1015 0.15048,0.1844 0.19517,0.1844 0.0447,0 0.0813,-0.083 0.0813,-0.1844 z m -0.82934,-0.8907 c 0,-0.8393 -0.35756,-0.8103 -0.42696,0.035 -0.043,0.5236 0.005,0.6892 0.18429,0.6296 0.13347,-0.045 0.24267,-0.3435 0.24267,-0.6645 z m -3.04796,-0.5052 c 0.79682,-0.8644 1.61127,-2.4083 1.38628,-2.6278 -0.0693,-0.067 -0.41773,0.2088 -0.77433,0.6142 -0.48165,0.5478 -0.61588,0.6307 -0.52205,0.3226 0.19358,-0.6356 -0.32622,-0.5237 -0.85553,0.1843 -0.24633,0.3294 -0.55785,0.8717 -0.69227,1.2052 -0.21975,0.5449 -0.20929,0.6327 0.10346,0.8695 0.48864,0.3699 0.49073,0.369 1.35444,-0.568 z m 3.81156,-0.5415 c 0.11122,-0.2899 -0.22361,-0.827 -0.5155,-0.827 -0.29022,0 -0.39128,0.5458 -0.154,0.8316 0.29084,0.3505 0.53387,0.3489 0.6695,-0.01 z m -7.30986,13.6359 c -0.12821,-0.1545 -0.18654,-0.3275 -0.12964,-0.3844 0.0569,-0.057 0.19606,0.069 0.30921,0.2809 0.24138,0.451 0.15178,0.5027 -0.17957,0.1035 z m 21.39059,-2.5758 c -0.002,-0.1013 0.12141,-0.5574 0.27323,-1.0135 l 0.27603,-0.8294 -0.11137,0.7372 c -0.10393,0.6881 -0.43165,1.5156 -0.43789,1.1057 z m 0.55014,0 c 0,-0.1013 0.0804,-0.3086 0.17865,-0.4607 0.0983,-0.1521 0.17865,-0.1935 0.17865,-0.092 0,0.1013 -0.0804,0.3087 -0.17865,0.4607 -0.0983,0.1521 -0.17865,0.1935 -0.17865,0.092 z m -24.58962,-3.5166 c -0.14969,-0.3901 -0.11033,-1.5338 0.0724,-2.1044 0.103,-0.3217 0.15309,-0.029 0.16592,0.9676 0.0184,1.436 -0.0316,1.6753 -0.23835,1.1368 z m 16.38546,-2.0999 c -0.15807,-0.2559 -0.35246,-2.0317 -0.22239,-2.0317 0.0595,0 0.312,0.4059 0.56118,0.9019 0.3309,0.6589 0.39812,0.957 0.24929,1.1059 -0.25148,0.2514 -0.44261,0.2592 -0.58808,0.024 z m 5.06546,-2.5846 c -0.10849,-0.2028 -0.1558,-0.3686 -0.10511,-0.3686 0.0507,0 0.18091,0.1658 0.28941,0.3686 0.10849,0.2027 0.1558,0.3685 0.10511,0.3685 -0.0507,0 -0.18091,-0.1658 -0.28941,-0.3685 z m 3.53758,-0.6451 c 0.003,-0.304 0.045,-0.4061 0.0918,-0.2269 0.0467,0.1794 0.0437,0.4282 -0.007,0.5529 -0.0505,0.1248 -0.0887,-0.022 -0.085,-0.326 z m -22.97219,-0.6324 c 0.0712,-0.2464 0.29136,-0.7025 0.48927,-1.0136 0.30505,-0.4794 0.34014,-0.4974 0.23041,-0.1175 -0.0712,0.2464 -0.29135,0.7026 -0.48927,1.0136 -0.30505,0.4795 -0.34014,0.4974 -0.23041,0.1175 z"
       id="path3064-3-2"
       inkscape:connector-curvature="0"
       inkscape:export-filename="/home/adrian/Escritorio/CartoWeb_2011/logos_otras_aplicaciones/logos_uni_y_cam/logo_caminos_gris.png"
       inkscape:export-xdpi="89.237358"
       inkscape:export-ydpi="89.237358" />
  </g>
</svg>
