<?xml version="1.0" encoding="UTF-8" standalone="no"?>
<!-- Generator: Adobe Illustrator 15.1.0, SVG Export Plug-In . SVG Version: 6.00 Build 0)  -->

<svg
   xmlns:dc="http://purl.org/dc/elements/1.1/"
   xmlns:cc="http://creativecommons.org/ns#"
   xmlns:rdf="http://www.w3.org/1999/02/22-rdf-syntax-ns#"
   xmlns:svg="http://www.w3.org/2000/svg"
   xmlns="http://www.w3.org/2000/svg"
   xmlns:sodipodi="http://sodipodi.sourceforge.net/DTD/sodipodi-0.dtd"
   xmlns:inkscape="http://www.inkscape.org/namespaces/inkscape"
   version="1.1"
   id="Capa_1"
   x="0px"
   y="0px"
   width="560.87042"
   height="165.16568"
   viewBox="0 0 560.87041 165.16568"
   enable-background="new 0 0 963.78 453.543"
   xml:space="preserve"
   inkscape:version="0.48.3.1 r9886"
   sodipodi:docname="logo.svg"><metadata
   id="metadata87"><rdf:RDF><cc:Work
       rdf:about=""><dc:format>image/svg+xml</dc:format><dc:type
         rdf:resource="http://purl.org/dc/dcmitype/StillImage" /><dc:title></dc:title></cc:Work></rdf:RDF></metadata><defs
   id="defs85" /><sodipodi:namedview
   pagecolor="#ffffff"
   bordercolor="#666666"
   borderopacity="1"
   objecttolerance="10"
   gridtolerance="10"
   guidetolerance="10"
   inkscape:pageopacity="0"
   inkscape:pageshadow="2"
   inkscape:window-width="1280"
   inkscape:window-height="726"
   id="namedview83"
   showgrid="false"
   fit-margin-top="0"
   fit-margin-left="0"
   fit-margin-right="0"
   fit-margin-bottom="0"
   inkscape:zoom="0.79227225"
   inkscape:cx="415.43952"
   inkscape:cy="111.16761"
   inkscape:window-x="0"
   inkscape:window-y="25"
   inkscape:window-maximized="1"
   inkscape:current-layer="Capa_1" />


<g
   id="g3081"
   transform="translate(3.680613e-6,-1.3663998e-7)"><g
     transform="matrix(0.65966848,0,0,0.65966848,-37.398319,-37.398585)"
     id="g3">
	<path
   id="path5"
   d="M 197.54,100.594 C 181.132,84.659 161.509,76.702 138.66,76.901 c -22.849,0.2 -42.337,8.498 -58.262,24.715 -16.127,16.221 -24.092,35.838 -23.691,58.88 0.132,15.296 3.93,29.013 11.197,41.339 0.397,0.581 0.981,1.35 1.567,2.315 0,0 63.46,96.225 66.591,100.844 3.127,4.627 6.136,0.074 6.136,0.074 l 69.001,-103.51 c 7.442,-12.653 11.193,-26.822 11.057,-42.507 -0.2,-23.043 -8.502,-42.519 -24.716,-58.457 z"
   inkscape:connector-curvature="0"
   style="fill:#95c11f" />
	<path
   id="path7"
   d="m 772.916,60.005 c -2.225,-2.199 -4.895,-3.312 -8.018,-3.312 -3.111,0 -5.787,1.113 -7.979,3.312 -2.229,2.191 -3.34,4.855 -3.312,8.007 0,2.09 0.506,3.97 1.48,5.657 0.057,0.082 0.137,0.184 0.211,0.318 0,0 8.551,13.217 8.98,13.849 0.414,0.637 0.832,0.017 0.832,0.017 l 9.547,-14.048 c 1.027,-1.722 1.562,-3.654 1.562,-5.793 10e-4,-3.152 -1.118,-5.816 -3.303,-8.007 z"
   inkscape:connector-curvature="0"
   style="fill:#95c11f" />
</g><g
     transform="matrix(0.65966848,0,0,0.65966848,-37.398319,-37.398585)"
     id="g9">
	<path
   id="path11"
   d="m 204.552,160.611 v 0.25 c -0.5,-32.089 -18.047,-55.15 -46.376,-62.922 h -0.255 c -12.284,-3.261 -25.815,-3.512 -37.602,0 -46.63,13.035 -58.411,70.695 -31.336,106.292 11.781,14.79 31.336,22.311 50.891,22.311 16.293,0.251 33.094,-4.259 44.624,-15.039 9.777,-10.029 -3.261,-20.309 -12.035,-12.287 -9.777,7.521 -21.806,10.529 -33.343,10.529 -25.067,0 -42.615,-17.043 -45.875,-37.605 l -0.846,-7.787 0.093,-7.502 c 1.507,-20.307 13.287,-37.104 33.341,-42.368 8.525,-2.507 18.808,-2.507 27.076,-0.251 h -0.249 c 19.554,5.017 32.593,21.309 34.346,42.619 H 139.66 c -4.194,0 -7.596,3.403 -7.596,7.599 0,4.196 3.402,7.69 7.596,7.69 h 52.609 c 10.28,0.001 12.787,-6.012 12.283,-11.529 z"
   inkscape:connector-curvature="0"
   style="fill:#005781" />
	<path
   id="path13"
   d="m 676.214,226.293 c -16.789,0 -33.09,-6.768 -40.611,-20.055 v 53.897 c 0,11.531 -18.297,11.531 -18.297,0 v -155.68 c 0,-5.515 3.508,-8.772 9.275,-8.772 5.77,0 8.523,3.258 8.523,8.772 v 11.784 c 8.527,-15.543 26.07,-22.062 41.109,-22.062 7.775,0 16.297,1.505 24.074,4.763 l -0.25,-0.251 c 27.324,11.283 41.111,36.101 40.355,65.179 -0.998,35.6 -26.564,62.425 -64.178,62.425 z m -40.611,-75.709 v 19.805 c 0,22.06 17.051,37.603 39.863,38.607 17.799,0 35.598,-9.528 42.865,-26.825 2.008,-5.267 3.514,-12.036 3.764,-18.551 0.248,-16.298 -5.016,-31.338 -18.551,-42.619 -7.268,-5.767 -16.297,-8.774 -25.824,-9.528 -22.812,0.001 -42.117,14.544 -42.117,39.111 z"
   inkscape:connector-curvature="0"
   style="fill:#005781" />
	<path
   id="path15"
   d="m 444.179,149.833 c -0.5,-21.561 -17.797,-37.104 -38.855,-37.104 -26.323,0 -47.137,19.555 -47.137,48.386 v 55.15 c 0,5.517 -3.759,8.773 -9.278,8.773 -5.514,0 -9.272,-3.257 -9.272,-8.773 v -62.172 c 0,-14.289 -5.767,-28.076 -17.297,-35.348 -6.521,-4.01 -13.792,-5.765 -21.563,-5.765 -24.568,0 -46.879,18.801 -46.879,46.88 v 56.405 c 0,11.534 -18.3,11.281 -18.3,0 V 104.208 c 0,-4.765 4.014,-8.778 9.026,-8.778 5.514,0 8.774,4.013 8.774,8.778 v 17.296 c 10.026,-18.052 27.828,-26.075 47.129,-26.075 21.813,0 43.37,10.781 50.89,33.094 9.027,-22.312 30.842,-33.094 53.154,-33.094 28.831,0 57.91,19.305 57.91,53.649 v 67.186 c 0,5.517 -3.758,8.773 -9.273,8.773 -5.765,0 -9.027,-3.257 -9.027,-8.773 v -66.431 z"
   inkscape:connector-curvature="0"
   style="fill:#005781" />
	<path
   id="path17"
   d="m 514.078,99.19 c 8.27,-3.76 17.295,-5.012 26.82,-4.761 14.291,0.249 30.59,4.761 39.613,19.553 v -9.526 c 0,-5.265 3.258,-9.025 9.023,-9.025 5.52,0 9.277,3.76 9.277,9.025 v 111.309 c 0,5.515 -3.758,9.022 -9.277,9.022 -5.766,0 -9.023,-3.508 -9.023,-9.022 v -12.031 c -7.271,14.539 -25.826,22.81 -40.613,22.81 -12.033,0 -25.57,-3.258 -36.1,-10.778 -19.055,-13.037 -28.818,-34.344 -28.066,-58.911 0.502,-25.322 14.529,-48.637 38.596,-57.913 l -0.25,0.248 z m 66.433,70.946 v -19.805 c 0,-24.818 -17.297,-37.603 -39.859,-38.606 -17.801,-0.251 -35.848,9.277 -42.869,26.825 -2.258,5.268 -3.514,12.035 -3.762,18.551 -0.498,16.297 4.764,31.338 18.303,42.619 7.518,5.766 16.545,8.775 25.822,9.528 23.061,0 41.109,-14.04 42.365,-39.112 z"
   inkscape:connector-curvature="0"
   style="fill:#005781" />
	<path
   id="path19"
   d="m 755.779,104.208 c 0,-10.784 18.303,-11.033 18.303,-0.255 v 113.062 c 0,11.034 -18.303,10.784 -18.303,0 V 104.208 z"
   inkscape:connector-curvature="0"
   style="fill:#005781" />
	<path
   id="path21"
   d="m 853.982,109.22 c -27.328,0 -45.879,22.311 -45.879,50.89 0,11.283 3.262,24.066 10.785,33.091 8.77,10.779 22.559,16.549 36.094,16.549 13.289,0 27.824,-4.516 36.605,-16.549 6.268,-8.524 21.307,1.255 12.785,11.032 -12.287,15.039 -31.088,22.309 -49.639,22.309 -18.807,0 -37.855,-7.772 -50.389,-22.309 -10.533,-13.035 -15.797,-30.836 -14.791,-49.138 2.002,-37.103 28.328,-62.422 66.434,-62.422 18.047,0 32.588,6.016 46.123,21.308 7.275,8.275 -6.266,18.802 -13.285,10.533 -9.521,-11.031 -22.31,-15.294 -34.843,-15.294 z"
   inkscape:connector-curvature="0"
   style="fill:#005781" />
</g></g>
</svg>