<?xml version="1.0" encoding="UTF-8" standalone="no"?>
<!-- Generator: Adobe Illustrator 15.1.0, SVG Export Plug-In . SVG Version: 6.00 Build 0)  -->

<svg
   xmlns:osb="http://www.openswatchbook.org/uri/2009/osb"
   xmlns:dc="http://purl.org/dc/elements/1.1/"
   xmlns:cc="http://creativecommons.org/ns#"
   xmlns:rdf="http://www.w3.org/1999/02/22-rdf-syntax-ns#"
   xmlns:svg="http://www.w3.org/2000/svg"
   xmlns="http://www.w3.org/2000/svg"
   xmlns:sodipodi="http://sodipodi.sourceforge.net/DTD/sodipodi-0.dtd"
   xmlns:inkscape="http://www.inkscape.org/namespaces/inkscape"
   version="1.1"
   id="Capa_1"
   x="0px"
   y="0px"
   width="560.87042"
   height="165.16568"
   viewBox="0 0 560.87041 165.16568"
   enable-background="new 0 0 963.78 453.543"
   xml:space="preserve"
   inkscape:version="0.48.3.1 r9886"
   sodipodi:docname="logo.svg"><metadata
   id="metadata87"><rdf:RDF><cc:Work
       rdf:about=""><dc:format>image/svg+xml</dc:format><dc:type
         rdf:resource="http://purl.org/dc/dcmitype/StillImage" /><dc:title /></cc:Work></rdf:RDF></metadata><defs
   id="defs85"><linearGradient
   id="linearGradient3765"
   osb:paint="gradient"><stop
     style="stop-color:#ff0000;stop-opacity:1;"
     offset="0"
     id="stop3767" /><stop
     style="stop-color:#ff0000;stop-opacity:0;"
     offset="1"
     id="stop3769" /></linearGradient>
	
	
	
	
	
	
</defs><sodipodi:namedview
   pagecolor="#ffffff"
   bordercolor="#666666"
   borderopacity="1"
   objecttolerance="10"
   gridtolerance="10"
   guidetolerance="10"
   inkscape:pageopacity="0"
   inkscape:pageshadow="2"
   inkscape:window-width="2048"
   inkscape:window-height="1075"
   id="namedview83"
   showgrid="false"
   fit-margin-top="0"
   fit-margin-left="0"
   fit-margin-right="0"
   fit-margin-bottom="0"
   inkscape:zoom="4.621824"
   inkscape:cx="421.60014"
   inkscape:cy="41.408569"
   inkscape:window-x="2048"
   inkscape:window-y="24"
   inkscape:window-maximized="1"
   inkscape:current-layer="layer1"><inkscape:grid
     type="xygrid"
     id="grid2991" /></sodipodi:namedview>


<g
   id="g3"
   transform="matrix(0.65966848,0,0,0.65966848,-37.398315,-37.398585)">
	<path
   style="fill:#95c11f"
   inkscape:connector-curvature="0"
   d="M 197.54,100.594 C 181.132,84.659 161.509,76.702 138.66,76.901 c -22.849,0.2 -42.337,8.498 -58.262,24.715 -16.127,16.221 -24.092,35.838 -23.691,58.88 0.132,15.296 3.93,29.013 11.197,41.339 0.397,0.581 0.981,1.35 1.567,2.315 0,0 63.46,96.225 66.591,100.844 3.127,4.627 6.136,0.074 6.136,0.074 l 69.001,-103.51 c 7.442,-12.653 11.193,-26.822 11.057,-42.507 -0.2,-23.043 -8.502,-42.519 -24.716,-58.457 z"
   id="path5" />
	<path
   style="fill:#95c11f"
   inkscape:connector-curvature="0"
   d="m 772.916,60.005 c -2.225,-2.199 -4.895,-3.312 -8.018,-3.312 -3.111,0 -5.787,1.113 -7.979,3.312 -2.229,2.191 -3.34,4.855 -3.312,8.007 0,2.09 0.506,3.97 1.48,5.657 0.057,0.082 0.137,0.184 0.211,0.318 0,0 8.551,13.217 8.98,13.849 0.414,0.637 0.832,0.017 0.832,0.017 l 9.547,-14.048 c 1.027,-1.722 1.562,-3.654 1.562,-5.793 10e-4,-3.152 -1.118,-5.816 -3.303,-8.007 z"
   id="path7" />
</g><path
   id="path11"
   d="m 97.538192,68.551429 v 0.164917 C 97.208358,47.548245 85.633155,32.33563 66.945406,27.208686 h -0.168215 c -8.103368,-2.151179 -17.029342,-2.316755 -24.804854,0 -30.760341,8.598779 -38.5318957,46.635263 -20.671372,70.117482 7.771555,9.756502 20.671372,14.717862 33.571189,14.717862 10.747979,0.16558 21.831069,-2.80953 29.437046,-9.92075 6.449579,-6.615818 -2.151179,-13.39721 -7.93911,-8.105349 -6.449579,4.961367 -14.384731,6.945649 -21.995326,6.945649 -16.53591,0 -28.111772,-11.24273 -30.262292,-24.806833 l -0.558079,-5.136838 0.06135,-4.948833 c 0.99412,-13.395888 8.765015,-24.47634 21.994007,-27.948834 5.623674,-1.653789 12.407045,-1.653789 17.861184,-0.165577 H 63.306675 C 76.205833,41.266222 84.80725,52.01354 85.963649,66.071076 H 54.730985 c -2.76665,0 -5.010842,2.244852 -5.010842,5.012821 0,2.767968 2.244192,5.07285 5.010842,5.07285 h 34.704499 c 6.781392,6.6e-4 8.435181,-3.965927 8.102708,-7.605318 z"
   inkscape:connector-curvature="0"
   style="fill:#ffffff;fill-opacity:1" /><path
   id="path13"
   d="m 408.67875,111.87977 c -11.07518,0 -21.82843,-4.46463 -26.7898,-13.229647 v 35.554157 c 0,7.60663 -12.06995,7.60663 -12.06995,0 V 31.507086 c 0,-3.638072 2.31411,-5.786612 6.11842,-5.786612 3.80629,0 5.62236,2.1492 5.62236,5.786612 v 7.773533 c 5.62499,-10.253227 17.19755,-14.553606 27.11831,-14.553606 5.12892,0 10.75061,0.992802 15.88086,3.142001 l -0.16492,-0.165576 c 18.02478,7.443039 27.11963,23.814691 26.62092,42.996531 -0.65835,23.484198 -17.52343,41.179801 -42.3362,41.179801 z m -26.7898,-49.942837 v 13.064735 c 0,14.552286 11.24801,24.805513 26.29636,25.467822 11.74144,0 23.48288,-6.285323 28.27669,-17.695608 1.32462,-3.474474 2.31808,-7.93977 2.483,-12.23751 0.16359,-10.751277 -3.3089,-20.672691 -12.23751,-28.114411 -4.79447,-3.804308 -10.75062,-5.787931 -17.03528,-6.285322 -15.04836,6.6e-4 -27.78326,9.594219 -27.78326,25.800294 z"
   inkscape:connector-curvature="0"
   style="fill:#ffffff" /><path
   id="path15"
   d="M 255.61257,61.441522 C 255.28274,47.21841 243.87245,36.965183 229.98115,36.965183 c -17.36445,0 -31.09479,12.899817 -31.09479,31.918719 v 36.380718 c 0,3.63939 -2.47969,5.78727 -6.12041,5.78727 -3.63741,0 -6.11644,-2.14854 -6.11644,-5.78727 V 64.25171 c 0,-9.426003 -3.80431,-18.520852 -11.41029,-23.317961 -4.3017,-2.645271 -9.09814,-3.802989 -14.22443,-3.802989 -16.20673,0 -30.9246,12.402427 -30.9246,30.925258 v 37.208602 c 0,7.60862 -12.07193,7.44172 -12.07193,0 V 31.344148 c 0,-3.14332 2.64791,-5.79057 5.95417,-5.79057 3.63741,0 5.78793,2.64725 5.78793,5.79057 v 11.409626 c 6.61383,-11.908335 18.35725,-17.200856 31.08951,-17.200856 14.38935,0 28.60983,7.111886 33.57053,21.831069 5.95483,-14.718523 20.3455,-21.831069 35.06402,-21.831069 19.0189,0 38.2014,12.7349 38.2014,35.390555 v 44.320487 c 0,3.63939 -2.47903,5.78727 -6.1171,5.78727 -3.80299,0 -5.95483,-2.14854 -5.95483,-5.78727 V 61.441522 z"
   inkscape:connector-curvature="0"
   style="fill:#ffffff" /><path
   id="path17"
   d="m 301.72274,28.033932 c 5.45546,-2.480354 11.40896,-3.306259 17.69231,-3.140682 9.42732,0.164257 20.17926,3.140682 26.13144,12.898498 v -6.284002 c 0,-3.473155 2.1492,-5.953508 5.95219,-5.953508 3.64137,0 6.11975,2.480353 6.11975,5.953508 v 73.427034 c 0,3.63808 -2.47904,5.95153 -6.11975,5.95153 -3.80365,0 -5.95219,-2.31411 -5.95219,-5.95153 v -7.936467 c -4.79645,9.590917 -17.03659,15.047037 -26.79111,15.047037 -7.93779,0 -16.86773,-2.1492 -23.81403,-7.10991 -12.56999,-8.600094 -19.01033,-22.65565 -18.51426,-38.861726 0.33115,-16.704125 9.58432,-32.084295 25.46056,-38.20338 l -0.16491,0.163598 z m 43.82375,46.80084 V 61.770037 c 0,-16.371652 -11.41028,-24.805514 -26.29372,-25.467161 -11.74276,-0.165577 -23.6478,6.119744 -28.27933,17.695607 -1.48953,3.475133 -2.31808,7.93911 -2.48167,12.23751 -0.32852,10.750617 3.14266,20.672691 12.07391,28.114411 4.95939,3.803648 10.91421,5.788586 17.03396,6.285326 15.21261,0 27.11831,-9.26175 27.94685,-25.800958 z"
   inkscape:connector-curvature="0"
   style="fill:#ffffff" /><path
   id="path19"
   d="m 461.16527,31.344148 c 0,-7.113865 12.07391,-7.278122 12.07391,-0.168215 v 74.583437 c 0,7.27878 -12.07391,7.11387 -12.07391,0 V 31.344148 z"
   inkscape:connector-curvature="0"
   style="fill:#ffffff" /><path
   id="path21"
   d="m 525.94669,34.650406 c -18.02742,0 -30.26493,14.717864 -30.26493,33.570529 0,7.44304 2.15184,15.875582 7.11453,21.82909 5.78529,7.110567 14.88146,10.916855 23.81007,10.916855 8.76634,0 18.35462,-2.979064 24.14717,-10.916855 4.1348,-5.623014 14.05555,0.827884 8.43386,7.277463 -8.10535,9.920752 -20.50778,14.716542 -32.74529,14.716542 -12.40638,0 -24.97175,-5.12694 -33.24003,-14.716542 -6.94829,-8.598779 -10.42078,-20.341538 -9.75716,-32.41479 1.32066,-24.47568 18.68709,-41.177826 43.82442,-41.177826 11.90504,0 21.49727,3.968566 30.42589,14.056216 4.79909,5.458757 -4.13349,12.403087 -8.7637,6.948288 -6.2807,-7.276803 -14.7172,-10.08897 -22.98483,-10.08897 z"
   inkscape:connector-curvature="0"
   style="fill:#ffffff" />
<g
   inkscape:groupmode="layer"
   id="layer1"
   inkscape:label="alpha"
   style="display:inline"><g
   style="font-size:40px;font-style:normal;font-variant:normal;font-weight:500;font-stretch:normal;text-align:start;line-height:125%;letter-spacing:0px;word-spacing:0px;writing-mode:lr-tb;text-anchor:start;fill:#ffff00;fill-opacity:1;stroke:#ffffff;stroke-opacity:1;font-family:unifont;-inkscape-font-specification:unifont Medium"
   id="text2993"
   transform="translate(0,3.4618367)"><path
     d="m 466.28973,138.43282 0,2.5 7.5,0 0,-2.5 -7.5,0 m 0,0 0,-2.5 0,-2.5 0,-2.5 -2.5,0 0,2.5 0,2.5 0,2.5 2.5,0 m 10,0 0,2.5 2.5,0 0,-2.5 0,-2.5 0,-2.5 0,-2.5 0,-2.5 0,-2.5 0,-2.5 -2.5,0 0,2.5 0,2.5 -10,0 0,2.5 10,0 0,2.5 0,2.5 -2.5,0 0,2.5 2.5,0 m -10,-15 -2.5,0 0,2.5 2.5,0 0,-2.5 m 0,0 10,0 0,-2.5 -10,0 0,2.5"
     style="fill:#ffffff;fill-rule:nonzero;stroke:#ffffff;stroke-linejoin:miter"
     id="path3010"
     inkscape:connector-curvature="0" /><path
     d="m 498.78973,140.93282 0,-2.5 -5,0 0,-2.5 0,-2.5 0,-2.5 0,-2.5 0,-2.5 0,-2.5 0,-2.5 0,-2.5 0,-2.5 -5,0 0,2.5 2.5,0 0,2.5 0,2.5 0,2.5 0,2.5 0,2.5 0,2.5 0,2.5 0,2.5 -5,0 0,2.5 12.5,0"
     style="fill:#ffffff;fill-rule:nonzero;stroke:#ffffff;stroke-linejoin:miter"
     id="path3012"
     inkscape:connector-curvature="0" /><path
     d="m 503.78973,143.43282 0,2.5 2.5,0 0,-2.5 0,-2.5 0,-2.5 2.5,0 0,2.5 7.5,0 0,-2.5 -7.5,0 0,-2.5 -2.5,0 0,-2.5 0,-2.5 0,-2.5 0,-2.5 2.5,0 0,-2.5 -2.5,0 0,-2.5 -2.5,0 0,2.5 0,2.5 0,2.5 0,2.5 0,2.5 0,2.5 0,2.5 0,2.5 0,2.5 m 12.5,-5 2.5,0 0,-2.5 0,-2.5 0,-2.5 0,-2.5 0,-2.5 0,-2.5 -2.5,0 0,2.5 0,2.5 0,2.5 0,2.5 0,2.5 0,2.5 m -7.5,-15 7.5,0 0,-2.5 -7.5,0 0,2.5"
     style="fill:#ffffff;fill-rule:nonzero;stroke:#ffffff;stroke-linejoin:miter"
     id="path3014"
     inkscape:connector-curvature="0" /><path
     d="m 523.78973,138.43282 0,2.5 2.5,0 0,-2.5 0,-2.5 0,-2.5 0,-2.5 0,-2.5 0,-2.5 2.5,0 0,-2.5 -2.5,0 0,-2.5 0,-2.5 0,-2.5 0,-2.5 -2.5,0 0,2.5 0,2.5 0,2.5 0,2.5 0,2.5 0,2.5 0,2.5 0,2.5 0,2.5 0,2.5 m 12.5,0 0,2.5 2.5,0 0,-2.5 0,-2.5 0,-2.5 0,-2.5 0,-2.5 0,-2.5 0,-2.5 -2.5,0 0,2.5 0,2.5 0,2.5 0,2.5 0,2.5 0,2.5 m -7.5,-15 7.5,0 0,-2.5 -7.5,0 0,2.5"
     style="fill:#ffffff;fill-rule:nonzero;stroke:#ffffff;stroke-linejoin:miter"
     id="path3016"
     inkscape:connector-curvature="0" /><path
     d="m 546.28973,138.43282 0,2.5 7.5,0 0,-2.5 -7.5,0 m 0,0 0,-2.5 0,-2.5 0,-2.5 -2.5,0 0,2.5 0,2.5 0,2.5 2.5,0 m 10,0 0,2.5 2.5,0 0,-2.5 0,-2.5 0,-2.5 0,-2.5 0,-2.5 0,-2.5 0,-2.5 -2.5,0 0,2.5 0,2.5 -10,0 0,2.5 10,0 0,2.5 0,2.5 -2.5,0 0,2.5 2.5,0 m -10,-15 -2.5,0 0,2.5 2.5,0 0,-2.5 m 0,0 10,0 0,-2.5 -10,0 0,2.5"
     style="fill:#ffffff;fill-rule:nonzero;stroke:#ffffff;stroke-linejoin:miter"
     id="path3018"
     inkscape:connector-curvature="0" /></g>
</g></svg>