<?xml version="1.0" encoding="UTF-8" standalone="no"?>
<!-- Generator: Adobe Illustrator 15.1.0, SVG Export Plug-In . SVG Version: 6.00 Build 0)  -->

<svg
   xmlns:dc="http://purl.org/dc/elements/1.1/"
   xmlns:cc="http://creativecommons.org/ns#"
   xmlns:rdf="http://www.w3.org/1999/02/22-rdf-syntax-ns#"
   xmlns:svg="http://www.w3.org/2000/svg"
   xmlns="http://www.w3.org/2000/svg"
   xmlns:sodipodi="http://sodipodi.sourceforge.net/DTD/sodipodi-0.dtd"
   xmlns:inkscape="http://www.inkscape.org/namespaces/inkscape"
   version="1.1"
   id="Capa_1"
   x="0px"
   y="0px"
   width="560.87042"
   height="225"
   viewBox="0 0 560.87041 225"
   enable-background="new 0 0 963.78 453.543"
   xml:space="preserve"
   inkscape:version="0.48.3.1 r9886"
   sodipodi:docname="logo-intro.svg"><metadata
   id="metadata87"><rdf:RDF><cc:Work
       rdf:about=""><dc:format>image/svg+xml</dc:format><dc:type
         rdf:resource="http://purl.org/dc/dcmitype/StillImage" /><dc:title></dc:title></cc:Work></rdf:RDF></metadata><defs
   id="defs85" /><sodipodi:namedview
   pagecolor="#ffffff"
   bordercolor="#666666"
   borderopacity="1"
   objecttolerance="10"
   gridtolerance="10"
   guidetolerance="10"
   inkscape:pageopacity="0"
   inkscape:pageshadow="2"
   inkscape:window-width="1366"
   inkscape:window-height="692"
   id="namedview83"
   showgrid="false"
   fit-margin-top="0"
   fit-margin-left="0"
   fit-margin-right="0"
   fit-margin-bottom="0"
   inkscape:zoom="1.6402511"
   inkscape:cx="297.5889"
   inkscape:cy="113.00576"
   inkscape:window-x="0"
   inkscape:window-y="24"
   inkscape:window-maximized="1"
   inkscape:current-layer="layer1" />



<g
   inkscape:groupmode="layer"
   id="layer1"
   inkscape:label="alpha"><g
     id="g3896"><g
       style="fill:#8cd139;fill-opacity:1"
       transform="matrix(0.65966848,0,0,0.65966848,-37.398313,-37.398585)"
       id="g3">
	<path
   id="path5"
   d="M 197.54,100.594 C 181.132,84.659 161.509,76.702 138.66,76.901 c -22.849,0.2 -42.337,8.498 -58.262,24.715 -16.127,16.221 -24.092,35.838 -23.691,58.88 0.132,15.296 3.93,29.013 11.197,41.339 0.397,0.581 0.981,1.35 1.567,2.315 0,0 63.46,96.225 66.591,100.844 3.127,4.627 6.136,0.074 6.136,0.074 l 69.001,-103.51 c 7.442,-12.653 11.193,-26.822 11.057,-42.507 -0.2,-23.043 -8.502,-42.519 -24.716,-58.457 z"
   inkscape:connector-curvature="0"
   style="fill:#8cd139;fill-opacity:1" />
	<path
   id="path7"
   d="m 772.916,60.005 c -2.225,-2.199 -4.895,-3.312 -8.018,-3.312 -3.111,0 -5.787,1.113 -7.979,3.312 -2.229,2.191 -3.34,4.855 -3.312,8.007 0,2.09 0.506,3.97 1.48,5.657 0.057,0.082 0.137,0.184 0.211,0.318 0,0 8.551,13.217 8.98,13.849 0.414,0.637 0.832,0.017 0.832,0.017 l 9.547,-14.048 c 1.027,-1.722 1.562,-3.654 1.562,-5.793 10e-4,-3.152 -1.118,-5.816 -3.303,-8.007 z"
   inkscape:connector-curvature="0"
   style="fill:#8cd139;fill-opacity:1" />
</g><g
       style="fill:#ffffff"
       transform="matrix(0.65966848,0,0,0.65966848,-37.398313,-37.398585)"
       id="g9">
	<path
   id="path11"
   d="m 204.552,160.611 v 0.25 c -0.5,-32.089 -18.047,-55.15 -46.376,-62.922 h -0.255 c -12.284,-3.261 -25.815,-3.512 -37.602,0 -46.63,13.035 -58.411,70.695 -31.336,106.292 11.781,14.79 31.336,22.311 50.891,22.311 16.293,0.251 33.094,-4.259 44.624,-15.039 9.777,-10.029 -3.261,-20.309 -12.035,-12.287 -9.777,7.521 -21.806,10.529 -33.343,10.529 -25.067,0 -42.615,-17.043 -45.875,-37.605 l -0.846,-7.787 0.093,-7.502 c 1.507,-20.307 13.287,-37.104 33.341,-42.368 8.525,-2.507 18.808,-2.507 27.076,-0.251 h -0.249 c 19.554,5.017 32.593,21.309 34.346,42.619 H 139.66 c -4.194,0 -7.596,3.403 -7.596,7.599 0,4.196 3.402,7.69 7.596,7.69 h 52.609 c 10.28,0.001 12.787,-6.012 12.283,-11.529 z"
   inkscape:connector-curvature="0"
   style="fill:#ffffff" />
	<path
   id="path13"
   d="m 676.214,226.293 c -16.789,0 -33.09,-6.768 -40.611,-20.055 v 53.897 c 0,11.531 -18.297,11.531 -18.297,0 v -155.68 c 0,-5.515 3.508,-8.772 9.275,-8.772 5.77,0 8.523,3.258 8.523,8.772 v 11.784 c 8.527,-15.543 26.07,-22.062 41.109,-22.062 7.775,0 16.297,1.505 24.074,4.763 l -0.25,-0.251 c 27.324,11.283 41.111,36.101 40.355,65.179 -0.998,35.6 -26.564,62.425 -64.178,62.425 z m -40.611,-75.709 v 19.805 c 0,22.06 17.051,37.603 39.863,38.607 17.799,0 35.598,-9.528 42.865,-26.825 2.008,-5.267 3.514,-12.036 3.764,-18.551 0.248,-16.298 -5.016,-31.338 -18.551,-42.619 -7.268,-5.767 -16.297,-8.774 -25.824,-9.528 -22.812,0.001 -42.117,14.544 -42.117,39.111 z"
   inkscape:connector-curvature="0"
   style="fill:#ffffff" />
	<path
   id="path15"
   d="m 444.179,149.833 c -0.5,-21.561 -17.797,-37.104 -38.855,-37.104 -26.323,0 -47.137,19.555 -47.137,48.386 v 55.15 c 0,5.517 -3.759,8.773 -9.278,8.773 -5.514,0 -9.272,-3.257 -9.272,-8.773 v -62.172 c 0,-14.289 -5.767,-28.076 -17.297,-35.348 -6.521,-4.01 -13.792,-5.765 -21.563,-5.765 -24.568,0 -46.879,18.801 -46.879,46.88 v 56.405 c 0,11.534 -18.3,11.281 -18.3,0 V 104.208 c 0,-4.765 4.014,-8.778 9.026,-8.778 5.514,0 8.774,4.013 8.774,8.778 v 17.296 c 10.026,-18.052 27.828,-26.075 47.129,-26.075 21.813,0 43.37,10.781 50.89,33.094 9.027,-22.312 30.842,-33.094 53.154,-33.094 28.831,0 57.91,19.305 57.91,53.649 v 67.186 c 0,5.517 -3.758,8.773 -9.273,8.773 -5.765,0 -9.027,-3.257 -9.027,-8.773 v -66.431 z"
   inkscape:connector-curvature="0"
   style="fill:#ffffff" />
	<path
   id="path17"
   d="m 514.078,99.19 c 8.27,-3.76 17.295,-5.012 26.82,-4.761 14.291,0.249 30.59,4.761 39.613,19.553 v -9.526 c 0,-5.265 3.258,-9.025 9.023,-9.025 5.52,0 9.277,3.76 9.277,9.025 v 111.309 c 0,5.515 -3.758,9.022 -9.277,9.022 -5.766,0 -9.023,-3.508 -9.023,-9.022 v -12.031 c -7.271,14.539 -25.826,22.81 -40.613,22.81 -12.033,0 -25.57,-3.258 -36.1,-10.778 -19.055,-13.037 -28.818,-34.344 -28.066,-58.911 0.502,-25.322 14.529,-48.637 38.596,-57.913 l -0.25,0.248 z m 66.433,70.946 v -19.805 c 0,-24.818 -17.297,-37.603 -39.859,-38.606 -17.801,-0.251 -35.848,9.277 -42.869,26.825 -2.258,5.268 -3.514,12.035 -3.762,18.551 -0.498,16.297 4.764,31.338 18.303,42.619 7.518,5.766 16.545,8.775 25.822,9.528 23.061,0 41.109,-14.04 42.365,-39.112 z"
   inkscape:connector-curvature="0"
   style="fill:#ffffff" />
	<path
   id="path19"
   d="m 755.779,104.208 c 0,-10.784 18.303,-11.033 18.303,-0.255 v 113.062 c 0,11.034 -18.303,10.784 -18.303,0 V 104.208 z"
   inkscape:connector-curvature="0"
   style="fill:#ffffff" />
	<path
   id="path21"
   d="m 853.982,109.22 c -27.328,0 -45.879,22.311 -45.879,50.89 0,11.283 3.262,24.066 10.785,33.091 8.77,10.779 22.559,16.549 36.094,16.549 13.289,0 27.824,-4.516 36.605,-16.549 6.268,-8.524 21.307,1.255 12.785,11.032 -12.287,15.039 -31.088,22.309 -49.639,22.309 -18.807,0 -37.855,-7.772 -50.389,-22.309 -10.533,-13.035 -15.797,-30.836 -14.791,-49.138 2.002,-37.103 28.328,-62.422 66.434,-62.422 18.047,0 32.588,6.016 46.123,21.308 7.275,8.275 -6.266,18.802 -13.285,10.533 -9.521,-11.031 -22.31,-15.294 -34.843,-15.294 z"
   inkscape:connector-curvature="0"
   style="fill:#ffffff" />
</g><g
       transform="matrix(0.65966848,0,0,0.65966848,-37.398313,-37.398585)"
       style="fill:#8cd139;fill-opacity:1"
       id="g23">
	<g
   style="fill:#8cd139;fill-opacity:1"
   id="g25">
		<g
   style="fill:#8cd139;fill-opacity:1"
   id="g27">
			<path
   style="fill:#8cd139;fill-opacity:1"
   id="path29"
   d="m 253.066,256.925 c 2.291,-0.08 4.019,0.137 5.185,0.643 1.164,0.51 2.73,1.775 4.697,3.801 l 4.646,4.479 1.843,-2.908 c 1.04,-1.633 2.764,-2.939 5.176,-3.922 2.409,-0.982 4.716,-1.311 6.923,-0.99 2.208,0.424 4.91,2.049 8.102,4.881 3.19,2.832 5.332,5.574 6.423,8.229 1.299,2.947 2.635,7.641 4.007,14.076 1.371,6.438 1.877,10.26 1.523,11.471 -0.26,1.107 -1.229,1.938 -2.905,2.494 -3.945,1.336 -6.815,-2.307 -8.611,-10.92 -1.32,-6.338 -2.255,-10.25 -2.804,-11.727 -0.879,-2.262 -2.321,-4.307 -4.331,-6.133 -2.007,-1.824 -3.555,-2.518 -4.636,-2.082 -1.279,0.545 -2.276,2.697 -2.992,6.463 -0.717,3.768 -0.984,8.242 -0.803,13.422 0.177,5.082 -0.057,8.408 -0.699,9.977 -0.644,1.568 -2.112,2.391 -4.403,2.471 -1.695,0.059 -2.965,-0.617 -3.812,-2.035 -0.849,-1.416 -1.589,-4.061 -2.222,-7.928 -0.855,-4.459 -2.169,-9.227 -3.941,-14.305 -1.774,-5.074 -3.174,-7.992 -4.197,-8.756 -2.565,-2.006 -4.851,-0.328 -6.858,5.027 -1.453,4.143 -2.26,9.559 -2.425,16.246 -0.225,4.998 -0.466,8.074 -0.725,9.229 -0.259,1.156 -0.984,1.807 -2.177,1.945 -1.688,0.262 -3.008,-0.439 -3.964,-2.105 -0.956,-1.662 -1.718,-4.877 -2.282,-9.646 -1.474,-10.723 0.816,-19.482 6.864,-26.277 1.918,-2.162 3.417,-3.535 4.495,-4.121 1.076,-0.589 2.71,-0.921 4.903,-0.999 z"
   inkscape:connector-curvature="0" />
			<path
   style="fill:#8cd139;fill-opacity:1"
   id="path31"
   d="m 337.26,298.279 c 0.028,0.799 -1.798,2.061 -5.479,3.783 -3.68,1.727 -6.517,2.623 -8.51,2.691 -4.185,0.146 -7.698,-1.152 -10.537,-3.896 -2.84,-2.744 -4.333,-6.258 -4.483,-10.543 -0.167,-4.783 1.694,-9.336 5.584,-13.662 3.889,-4.326 8.173,-6.572 12.858,-6.734 1.394,-0.049 2.336,-0.18 2.829,-0.398 0.491,-0.215 0.626,-0.619 0.406,-1.211 -0.221,-0.59 -0.802,-1.566 -1.748,-2.932 -1.359,-1.748 -3.134,-2.559 -5.322,-2.432 -2.191,0.127 -4.15,1.168 -5.877,3.121 -2.972,3.498 -5.145,4.123 -6.519,1.875 -0.733,-0.971 -0.735,-2.443 -0.005,-4.414 0.729,-1.971 1.91,-3.832 3.546,-5.588 1.442,-1.547 2.681,-2.486 3.717,-2.82 1.036,-0.338 2.951,-0.453 5.749,-0.352 5.099,0.322 9.18,2.223 12.246,5.707 3.063,3.484 5.376,8.992 6.937,16.518 0.956,4.557 1.229,8.09 0.818,10.596 -0.412,2.51 -1.581,4.746 -3.506,6.707 -1.821,2.158 -2.722,3.488 -2.704,3.984 z m -3.962,-10.637 c -0.087,-2.488 -0.562,-4.617 -1.421,-6.385 -1.641,-4.131 -5.022,-3.812 -10.142,0.955 -1.64,1.654 -2.691,2.963 -3.155,3.926 -0.466,0.965 -0.624,2.143 -0.475,3.531 0.293,2.686 1.199,4.326 2.716,4.92 1.518,0.596 3.897,0.189 7.14,-1.223 2.359,-0.98 3.851,-1.803 4.477,-2.475 0.624,-0.669 0.912,-1.753 0.86,-3.249 z"
   inkscape:connector-curvature="0" />
			<path
   style="fill:#8cd139;fill-opacity:1"
   id="path33"
   d="m 362.26,298.605 c -1.396,0.049 -2.229,0.477 -2.5,1.283 -0.271,0.809 -0.337,3.205 -0.198,7.189 0.122,3.488 0.077,5.832 -0.128,7.037 -0.208,1.205 -0.802,2.074 -1.779,2.605 -1.467,0.852 -2.873,0.648 -4.21,-0.6 -0.824,-0.67 -1.415,-2.621 -1.776,-5.848 -0.363,-3.229 -0.725,-10.025 -1.086,-20.389 -0.457,-13.053 -0.424,-21.385 0.1,-24.994 0.521,-3.611 2.192,-6.461 5.014,-8.555 1.943,-1.465 5.063,-2.098 9.361,-1.9 4.294,0.203 7.77,1.15 10.425,2.854 3.876,2.461 6.413,5.814 7.608,10.061 1.196,4.25 0.819,8.453 -1.131,12.609 -2.509,5.277 -5.625,9.676 -9.34,13.197 -3.72,3.523 -7.172,5.338 -10.36,5.451 z m 9.448,-33.701 c -1.129,-0.859 -2.548,-1.531 -4.261,-2.021 -1.714,-0.486 -3.384,-0.504 -5.015,-0.049 -1.63,0.457 -2.667,1.49 -3.108,3.102 -0.44,1.713 -0.634,6.182 -0.58,13.412 0.052,7.232 0.329,10.891 0.832,10.971 1.294,-0.045 3.033,-1.004 5.212,-2.875 2.179,-1.873 4.218,-4.137 6.122,-6.799 5.037,-7.159 5.302,-12.405 0.798,-15.741 z"
   inkscape:connector-curvature="0" />
			<path
   style="fill:#8cd139;fill-opacity:1"
   id="path35"
   d="m 402.763,297.189 c -1.396,0.049 -2.229,0.479 -2.499,1.285 -0.271,0.809 -0.337,3.205 -0.199,7.189 0.122,3.488 0.078,5.834 -0.127,7.037 -0.208,1.203 -0.803,2.072 -1.78,2.607 -1.467,0.848 -2.872,0.646 -4.21,-0.602 -0.823,-0.672 -1.415,-2.621 -1.775,-5.85 -0.363,-3.227 -0.724,-10.023 -1.086,-20.389 -0.456,-13.051 -0.425,-21.383 0.1,-24.994 0.521,-3.609 2.192,-6.459 5.013,-8.555 1.943,-1.463 5.063,-2.096 9.361,-1.898 4.295,0.203 7.77,1.15 10.425,2.854 3.876,2.461 6.413,5.814 7.609,10.061 1.196,4.248 0.818,8.453 -1.132,12.609 -2.508,5.275 -5.625,9.676 -9.34,13.195 -3.72,3.525 -7.173,5.342 -10.36,5.451 z m 9.447,-33.699 c -1.128,-0.857 -2.547,-1.531 -4.26,-2.021 -1.714,-0.486 -3.384,-0.504 -5.014,-0.049 -1.63,0.457 -2.668,1.49 -3.109,3.102 -0.441,1.711 -0.633,6.184 -0.58,13.412 0.052,7.232 0.329,10.891 0.832,10.971 1.294,-0.045 3.034,-1.004 5.213,-2.875 2.179,-1.873 4.218,-4.139 6.122,-6.801 5.036,-7.157 5.302,-12.403 0.796,-15.739 z"
   inkscape:connector-curvature="0" />
			<path
   style="fill:#8cd139;fill-opacity:1"
   id="path37"
   d="m 437.054,293.597 c -2.192,0.078 -3.63,-1.119 -4.315,-3.59 -0.685,-2.471 -1.233,-8.137 -1.641,-17.002 -0.497,-11.355 -0.223,-17.748 0.826,-19.184 1.148,-1.436 2.445,-2.105 3.896,-2.006 1.448,0.098 2.353,0.943 2.707,2.523 0.699,2.871 1.371,9.232 2.013,19.084 0.697,8.557 0.865,14.037 0.5,16.443 -0.366,2.41 -1.694,3.652 -3.986,3.732 z"
   inkscape:connector-curvature="0" />
			<path
   style="fill:#8cd139;fill-opacity:1"
   id="path39"
   d="m 484.816,294.324 c -1.895,0.066 -3.258,-0.385 -4.09,-1.354 -0.521,-0.678 -1.76,-6.096 -3.709,-16.256 -1.951,-10.156 -3.336,-15.521 -4.154,-16.092 -2.832,-3.99 -6.568,-3.859 -11.209,0.393 -4.062,3.635 -5.884,11.479 -5.462,23.533 0.226,6.479 -0.301,9.988 -1.578,10.531 -1.869,0.764 -3.341,0.068 -4.413,-2.092 -1.074,-2.154 -1.808,-6.02 -2.201,-11.594 -1.446,-15.711 2.635,-25.93 12.248,-30.656 6.373,-3.217 11.713,-3.152 16.02,0.189 2.666,2.104 4.705,4.773 6.115,8.018 1.41,3.24 2.742,8.533 3.994,15.871 1.373,7.834 1.975,13.025 1.816,15.574 -0.16,2.552 -1.285,3.862 -3.377,3.935 z"
   inkscape:connector-curvature="0" />
			<path
   style="fill:#8cd139;fill-opacity:1"
   id="path41"
   d="m 528.646,268.251 c 0.07,1.994 0.785,5.361 2.148,10.102 1.457,4.639 2.24,9.947 2.35,15.93 0.109,5.98 -0.488,10.244 -1.797,12.781 -3.166,6.494 -9.332,9.904 -18.496,10.223 -9.07,0.318 -13.719,-2.863 -13.951,-9.537 -0.191,-5.48 1.461,-6.686 4.959,-3.617 2.16,1.822 4.141,2.848 5.945,3.086 2.01,0.428 4.494,0.117 7.451,-0.934 2.955,-1.051 4.756,-2.285 5.406,-3.705 0.74,-1.619 1.006,-4.723 0.797,-9.307 -0.211,-4.58 -0.795,-7.803 -1.76,-9.666 l -4.25,2.545 c -4.602,2.555 -8.768,3.199 -12.502,1.932 -3.736,-1.266 -6.623,-3.883 -8.654,-7.854 -2.035,-3.967 -2.475,-8.018 -1.322,-12.15 1.516,-5.139 4.297,-9.074 8.342,-11.812 4.043,-2.734 9.344,-3.068 15.902,-1.004 2.623,0.906 4.824,2.551 6.605,4.932 1.78,2.384 2.723,5.067 2.827,8.055 z m -24.971,4.915 c 0.074,2.092 0.297,3.531 0.676,4.314 0.377,0.787 1.174,1.406 2.387,1.863 1.312,0.551 2.393,0.715 3.232,0.484 0.84,-0.229 2.139,-0.92 3.893,-2.08 2.34,-1.578 3.613,-2.92 3.824,-4.025 0.211,-1.102 -0.25,-3.582 -1.381,-7.434 -0.676,-2.17 -1.424,-3.639 -2.248,-4.41 -0.826,-0.77 -1.83,-0.932 -3.01,-0.494 -1.184,0.441 -2.592,1.539 -4.227,3.289 -2.212,2.373 -3.259,5.203 -3.146,8.493 z"
   inkscape:connector-curvature="0" />
		</g>
		<g
   style="fill:#8cd139;fill-opacity:1"
   id="g43">
			<path
   style="fill:#8cd139;fill-opacity:1"
   id="path45"
   d="m 451.824,320.078 c -3.587,0.125 -6.108,0.762 -7.565,1.91 -1.456,1.15 -2.483,3.229 -3.074,6.242 -0.848,4.32 -1.057,6.898 -0.628,7.73 0.426,0.832 2.136,1.195 5.126,1.092 3.586,-0.125 5.807,0.645 6.665,2.311 1.062,1.859 0.871,3.514 -0.575,4.959 -1.446,1.449 -3.663,2.223 -6.652,2.326 l -4.484,0.158 0.454,13.002 c 0.303,8.668 -0.172,13.676 -1.42,15.014 -1.151,1.338 -2.487,1.635 -4.01,0.889 -1.622,-0.74 -2.668,-2.076 -3.133,-4.006 -0.467,-1.93 -0.813,-6.131 -1.039,-12.609 -0.185,-5.279 -0.428,-8.637 -0.726,-10.074 -0.3,-1.434 -1.009,-2.434 -2.125,-2.994 -1.522,-0.744 -2.329,-1.689 -2.418,-2.834 -0.092,-1.143 0.542,-2.285 1.9,-3.432 1.463,-0.951 2.594,-4.23 3.397,-9.846 0.637,-4.609 1.444,-7.93 2.42,-9.961 0.977,-2.029 2.682,-3.885 5.118,-5.566 2.142,-1.471 4.907,-2.289 8.293,-2.459 3.385,-0.168 6.222,0.307 8.505,1.422 2.283,1.119 3.106,2.586 2.473,4.404 -0.548,1.417 -2.717,2.189 -6.502,2.322 z"
   inkscape:connector-curvature="0" />
			<path
   style="fill:#8cd139;fill-opacity:1"
   id="path47"
   d="m 476.912,335.812 c 3.512,-2.316 8.346,-3.184 14.5,-2.602 6.156,0.584 9.779,2.203 10.869,4.859 1.637,4.031 0.586,8.209 -3.154,12.529 -4.504,5.346 -10.447,7.947 -17.834,7.805 -2.795,0 -4.436,0.133 -4.924,0.396 -0.49,0.266 -0.611,1.094 -0.361,2.482 0.385,2.482 1.49,4.162 3.318,5.047 1.826,0.885 5.383,1.383 10.676,1.496 6.793,0.264 10.213,1.092 10.262,2.486 0.029,0.799 -0.822,2.123 -2.553,3.979 -1.443,1.549 -2.734,2.467 -3.869,2.756 -1.141,0.289 -3.654,0.352 -7.553,0.188 -13.984,-0.508 -20.467,-7.664 -19.453,-21.467 0.361,-3.904 1.498,-7.783 3.41,-11.643 1.908,-3.856 4.13,-6.625 6.666,-8.311 z m 16.142,7.967 c -0.053,-1.496 -1.551,-2.193 -4.49,-2.09 -2.938,0.104 -5.33,0.936 -7.17,2.496 -1.357,1.146 -2.268,2.174 -2.736,3.088 -0.467,0.914 -0.441,1.639 0.076,2.166 0.518,0.531 1.475,0.773 2.869,0.725 2.191,-0.078 4.656,-0.885 7.398,-2.428 2.739,-1.541 4.09,-2.86 4.053,-3.957 z"
   inkscape:connector-curvature="0" />
			<path
   style="fill:#8cd139;fill-opacity:1"
   id="path49"
   d="m 520.554,334.287 c 3.51,-2.314 8.344,-3.182 14.498,-2.6 6.156,0.584 9.777,2.201 10.869,4.857 1.637,4.033 0.588,8.211 -3.154,12.529 -4.502,5.346 -10.447,7.949 -17.834,7.807 -2.793,-0.002 -4.436,0.131 -4.924,0.396 -0.492,0.268 -0.613,1.094 -0.363,2.48 0.387,2.482 1.494,4.164 3.32,5.047 1.826,0.887 5.383,1.385 10.676,1.5 6.793,0.262 10.215,1.088 10.264,2.484 0.027,0.797 -0.824,2.123 -2.557,3.979 -1.441,1.547 -2.73,2.467 -3.869,2.754 -1.137,0.291 -3.652,0.354 -7.549,0.189 -13.986,-0.51 -20.469,-7.666 -19.455,-21.467 0.361,-3.904 1.498,-7.783 3.408,-11.643 1.91,-3.855 4.133,-6.625 6.67,-8.312 z m 16.141,7.966 c -0.053,-1.494 -1.551,-2.191 -4.488,-2.088 -2.941,0.102 -5.33,0.934 -7.17,2.496 -1.359,1.146 -2.27,2.174 -2.736,3.088 -0.469,0.914 -0.443,1.637 0.076,2.164 0.516,0.533 1.471,0.775 2.867,0.727 2.191,-0.078 4.658,-0.885 7.398,-2.43 2.738,-1.539 4.092,-2.859 4.053,-3.957 z"
   inkscape:connector-curvature="0" />
			<path
   style="fill:#8cd139;fill-opacity:1"
   id="path51"
   d="m 554.582,310.355 c 0.75,-1.424 1.672,-2.154 2.77,-2.193 1.092,-0.037 2.213,0.574 3.354,1.828 1.139,1.158 2.025,9.408 2.66,24.748 0.398,8.566 0.785,14.639 1.16,18.215 0.373,3.58 0.963,6.127 1.764,7.645 0.803,1.521 2.16,2.596 4.078,3.225 1.613,0.545 2.625,1.682 3.037,3.412 0.41,1.732 -0.012,3.268 -1.262,4.607 -2.111,2.369 -5.051,2.496 -8.814,0.383 -3.766,-2.111 -6.475,-5.434 -8.129,-9.965 -0.889,-2.564 -1.445,-11.373 -1.672,-26.43 -0.228,-15.055 0.124,-23.547 1.054,-25.475 z"
   inkscape:connector-curvature="0" />
			<path
   style="fill:#8cd139;fill-opacity:1"
   id="path53"
   d="m 585.687,374.064 c -2.191,0.076 -3.631,-1.121 -4.314,-3.592 -0.684,-2.469 -1.234,-8.137 -1.641,-17.002 -0.496,-11.355 -0.223,-17.748 0.826,-19.184 1.146,-1.436 2.445,-2.104 3.895,-2.006 1.45,0.098 2.354,0.943 2.707,2.523 0.699,2.871 1.371,9.23 2.014,19.084 0.695,8.559 0.863,14.037 0.498,16.443 -0.364,2.408 -1.694,3.654 -3.985,3.734 z"
   inkscape:connector-curvature="0" />
			<path
   style="fill:#8cd139;fill-opacity:1"
   id="path55"
   d="m 633.449,374.789 c -1.895,0.066 -3.256,-0.385 -4.088,-1.354 -0.523,-0.678 -1.76,-6.098 -3.711,-16.258 -1.951,-10.154 -3.334,-15.52 -4.152,-16.09 -2.832,-3.988 -6.57,-3.859 -11.209,0.393 -4.062,3.633 -5.885,11.479 -5.463,23.533 0.227,6.479 -0.301,9.988 -1.58,10.531 -1.867,0.764 -3.34,0.066 -4.41,-2.092 -1.074,-2.156 -1.807,-6.02 -2.201,-11.594 -1.445,-15.711 2.633,-25.93 12.248,-30.654 6.371,-3.217 11.713,-3.152 16.018,0.188 2.666,2.102 4.705,4.773 6.115,8.016 1.408,3.244 2.742,8.533 3.996,15.873 1.369,7.834 1.975,13.025 1.816,15.574 -0.162,2.549 -1.286,3.859 -3.379,3.934 z"
   inkscape:connector-curvature="0" />
			<path
   style="fill:#8cd139;fill-opacity:1"
   id="path57"
   d="m 677.281,348.718 c 0.066,1.992 0.785,5.357 2.146,10.1 1.459,4.639 2.24,9.947 2.352,15.93 0.109,5.98 -0.49,10.242 -1.797,12.781 -3.166,6.494 -9.332,9.904 -18.498,10.223 -9.068,0.316 -13.717,-2.865 -13.951,-9.539 -0.191,-5.477 1.461,-6.684 4.961,-3.613 2.16,1.82 4.141,2.848 5.945,3.084 2.008,0.428 4.494,0.115 7.449,-0.934 2.957,-1.049 4.758,-2.285 5.408,-3.705 0.738,-1.621 1.004,-4.723 0.795,-9.307 -0.211,-4.578 -0.793,-7.803 -1.758,-9.666 l -4.252,2.545 c -4.6,2.555 -8.768,3.199 -12.5,1.932 -3.736,-1.264 -6.623,-3.885 -8.656,-7.854 -2.033,-3.969 -2.475,-8.016 -1.322,-12.15 1.516,-5.139 4.299,-9.076 8.342,-11.812 4.043,-2.732 9.346,-3.068 15.902,-1.004 2.625,0.906 4.826,2.551 6.607,4.932 1.778,2.381 2.721,5.067 2.827,8.057 z m -24.971,4.912 c 0.072,2.09 0.297,3.531 0.676,4.314 0.375,0.787 1.172,1.406 2.385,1.861 1.314,0.555 2.395,0.717 3.234,0.488 0.838,-0.23 2.137,-0.922 3.893,-2.082 2.34,-1.578 3.613,-2.918 3.824,-4.025 0.209,-1.104 -0.252,-3.582 -1.381,-7.434 -0.676,-2.17 -1.426,-3.641 -2.25,-4.41 -0.828,-0.77 -1.828,-0.934 -3.01,-0.494 -1.182,0.441 -2.59,1.537 -4.225,3.289 -2.212,2.376 -3.261,5.204 -3.146,8.493 z"
   inkscape:connector-curvature="0" />
			<path
   style="fill:#8cd139;fill-opacity:1"
   id="path59"
   d="m 697.91,339.617 c 0.064,1.793 1.881,3.875 5.457,6.244 3.264,2.08 6.602,4.809 10.012,8.18 1.965,2.027 3.217,3.627 3.758,4.807 0.541,1.18 0.748,2.816 0.623,4.916 -0.17,6.59 -4.691,9.992 -13.561,10.201 -5.586,0.098 -9.908,-0.9 -12.975,-2.988 -3.064,-2.086 -3.803,-4.557 -2.205,-7.406 0.662,-1.02 3.307,-1.014 7.932,0.021 3.52,0.777 6.299,1.078 8.338,0.906 2.037,-0.168 3.041,-0.803 3.002,-1.9 -0.031,-0.896 -5.072,-5.209 -15.117,-12.938 -3.385,-2.676 -4.84,-6.441 -4.357,-11.297 0.475,-4.854 2.664,-8.596 6.562,-11.227 2.83,-1.795 5.867,-2.676 9.113,-2.641 3.24,0.037 5.695,0.975 7.354,2.812 1.875,2.23 2.48,3.879 1.82,4.949 -0.662,1.07 -2.445,1.41 -5.352,1.01 -2.91,-0.396 -5.387,0.039 -7.438,1.307 -2.05,1.27 -3.039,2.952 -2.966,5.044 z"
   inkscape:connector-curvature="0" />
		</g>
		<g
   style="fill:#8cd139;fill-opacity:1"
   id="g61">
			<path
   style="fill:#8cd139;fill-opacity:1"
   id="path63"
   d="m 250.374,362.226 c -0.295,8.471 -1.738,14.754 -4.325,18.854 -2.588,4.1 -6.851,6.895 -12.788,8.383 -5.13,1.217 -9.096,1.254 -11.901,0.109 -2.803,-1.146 -4.146,-3.363 -4.031,-6.652 0.073,-2.092 0.491,-3.35 1.253,-3.771 0.764,-0.422 2.125,-0.199 4.092,0.666 1.864,0.865 4.505,0.957 7.921,0.277 3.414,-0.678 5.845,-2.389 7.287,-5.133 1.444,-2.74 2.499,-6.596 3.173,-11.561 l -4.744,2.977 c -6.222,3.875 -11.631,3.135 -16.233,-2.213 -3.064,-3.699 -4.981,-10.201 -5.754,-19.506 -0.201,-2.797 -0.184,-4.768 0.058,-5.908 0.238,-1.137 0.878,-2.338 1.921,-3.598 1.14,-1.256 1.962,-1.951 2.466,-2.084 0.504,-0.133 1.141,0.166 1.915,0.889 0.77,0.826 1.312,1.67 1.634,2.527 0.317,0.859 0.489,1.662 0.514,2.412 0.022,0.748 0.083,1.898 0.178,3.447 0.096,1.551 0.266,3.127 0.508,4.73 1.154,6.924 2.812,10.85 4.977,11.771 2.161,0.924 4.634,-1.309 7.417,-6.699 2.034,-4.018 3.145,-8.666 3.33,-13.951 0.188,-5.379 0.535,-8.211 1.045,-8.492 0.515,-0.479 1.42,-0.697 2.716,-0.652 1.294,0.045 2.43,0.383 3.406,1.016 1.07,0.738 2.051,4.785 2.942,12.15 0.89,7.364 1.232,14.034 1.023,20.012 z"
   inkscape:connector-curvature="0" />
			<path
   style="fill:#8cd139;fill-opacity:1"
   id="path65"
   d="m 271.07,330.925 c 2.245,-1.516 4.023,-2.402 5.33,-2.656 1.304,-0.254 3.297,-0.133 5.974,0.357 6.249,1.02 10.981,4.027 14.199,9.025 2.642,4.283 3.632,9.555 2.963,15.816 -0.666,6.262 -2.809,11.176 -6.424,14.74 -2.583,2.506 -5.982,4.205 -10.205,5.104 -4.221,0.9 -8.258,0.787 -12.109,-0.346 -5.824,-1.799 -9.815,-5.357 -11.972,-10.668 -2.161,-5.314 -2.112,-10.973 0.145,-16.98 2.252,-6.005 6.286,-10.802 12.099,-14.392 z m 5.742,32.672 c 3.588,0.127 6.374,-0.424 8.363,-1.652 1.989,-1.227 3.383,-3.324 4.185,-6.287 0.9,-2.961 1.009,-6.049 0.324,-9.268 -0.688,-3.217 -1.953,-5.553 -3.796,-7.016 -2.136,-1.67 -4.481,-2.35 -7.036,-2.041 -2.555,0.309 -4.669,1.533 -6.338,3.67 -4.271,5.139 -6.039,10.064 -5.304,14.777 0.398,2.809 1.303,4.783 2.71,5.932 1.404,1.149 3.702,1.774 6.892,1.885 z"
   inkscape:connector-curvature="0" />
			<path
   style="fill:#8cd139;fill-opacity:1"
   id="path67"
   d="m 306.636,349.376 c 0.202,-5.777 0.567,-9.805 1.096,-12.084 0.527,-2.273 1.399,-3.639 2.612,-4.096 0.906,-0.27 1.653,-0.217 2.24,0.15 0.583,0.373 1.081,1.16 1.487,2.373 0.406,1.211 0.698,2.844 0.877,4.893 0.175,2.053 0.309,4.676 0.398,7.871 0.232,16.168 2.54,24.33 6.926,24.484 0.994,0.033 2.155,-0.322 3.48,-1.076 2.032,-1.127 3.892,-2.955 5.577,-5.492 1.156,-1.654 1.869,-3.549 2.145,-5.686 0.273,-2.135 0.422,-6.395 0.446,-12.779 0.042,-9.775 0.474,-15.045 1.301,-15.816 1.855,-1.732 3.883,-1.26 6.086,1.41 1.53,1.848 2.32,7.064 2.371,15.645 0.05,8.582 -0.688,14.693 -2.211,18.328 -2.388,5.506 -5.824,9.6 -10.305,12.285 -4.485,2.688 -8.893,3.258 -13.229,1.709 -4.237,-1.543 -7.262,-4.893 -9.077,-10.045 -1.815,-5.15 -2.553,-12.507 -2.22,-22.074 z"
   inkscape:connector-curvature="0" />
			<path
   style="fill:#8cd139;fill-opacity:1"
   id="path69"
   d="m 386.631,342.593 c -0.108,3.09 -3.266,3.529 -9.474,1.316 -5.908,-2.201 -10.144,-1.65 -12.702,1.65 -2.561,3.303 -3.917,9.99 -4.067,20.059 -0.097,8.479 -0.552,12.951 -1.367,13.42 -1.018,0.564 -2.439,0.539 -4.262,-0.072 -1.826,-0.611 -2.92,-1.424 -3.282,-2.436 -0.451,-1.41 -0.707,-8.352 -0.769,-20.828 -0.093,-8.779 -0.026,-14.238 0.198,-16.377 0.223,-2.137 0.791,-3.389 1.703,-3.756 1.311,-0.453 2.693,-0.004 4.142,1.342 1.353,1.242 2.389,1.529 3.113,0.855 0.823,-0.768 2.452,-1.656 4.882,-2.672 4.057,-1.953 8.649,-1.992 13.771,-0.117 5.513,2.091 8.219,4.626 8.114,7.616 z"
   inkscape:connector-curvature="0" />
		</g>
	</g>
	<g
   style="fill:#8cd139;fill-opacity:1"
   id="g71">
		<g
   style="fill:#8cd139;fill-opacity:1"
   id="g73">
			<path
   style="fill:#8cd139;fill-opacity:1"
   id="path75"
   d="m 428.828,237.062 c 2.095,-3.291 4.487,-3.591 7.179,-0.898 1.294,1.297 1.869,2.691 1.719,4.187 -0.149,1.494 -0.923,2.643 -2.317,3.439 -2.692,1.398 -4.887,1.248 -6.581,-0.449 -1.696,-1.694 -1.696,-3.787 0,-6.279 z"
   inkscape:connector-curvature="0" />
		</g>
	</g>
	<g
   style="fill:#8cd139;fill-opacity:1"
   id="g77">
		<g
   style="fill:#8cd139;fill-opacity:1"
   id="g79">
			<path
   style="fill:#8cd139;fill-opacity:1"
   id="path81"
   d="m 581.037,318.154 c 2.096,-3.291 4.488,-3.59 7.178,-0.898 1.297,1.299 1.869,2.691 1.721,4.188 -0.15,1.496 -0.922,2.643 -2.318,3.441 -2.691,1.396 -4.887,1.246 -6.58,-0.449 -1.697,-1.696 -1.697,-3.79 -10e-4,-6.282 z"
   inkscape:connector-curvature="0" />
		</g>
	</g>
</g><g
       id="text2993"
       style="font-size:40px;font-style:normal;font-variant:normal;font-weight:500;font-stretch:normal;text-align:start;line-height:125%;letter-spacing:0px;word-spacing:0px;writing-mode:lr-tb;text-anchor:start;fill:#ffffff;fill-opacity:1;stroke:#ffffff;stroke-opacity:1;display:inline;font-family:unifont;-inkscape-font-specification:unifont Medium"><path
         id="path3838"
         style="fill:#ffffff;fill-rule:nonzero;stroke:#ffffff;stroke-linejoin:miter"
         d="m 465.71457,143.1877 0,2.5 7.5,0 0,-2.5 -7.5,0 m 0,0 0,-2.5 0,-2.5 0,-2.5 -2.5,0 0,2.5 0,2.5 0,2.5 2.5,0 m 10,0 0,2.5 2.5,0 0,-2.5 0,-2.5 0,-2.5 0,-2.5 0,-2.5 0,-2.5 0,-2.5 -2.5,0 0,2.5 0,2.5 -10,0 0,2.5 10,0 0,2.5 0,2.5 -2.5,0 0,2.5 2.5,0 m -10,-15 -2.5,0 0,2.5 2.5,0 0,-2.5 m 0,0 10,0 0,-2.5 -10,0 0,2.5" /><path
         id="path3840"
         style="fill:#ffffff;fill-rule:nonzero;stroke:#ffffff;stroke-linejoin:miter"
         d="m 498.21457,145.6877 0,-2.5 -5,0 0,-2.5 0,-2.5 0,-2.5 0,-2.5 0,-2.5 0,-2.5 0,-2.5 0,-2.5 0,-2.5 -5,0 0,2.5 2.5,0 0,2.5 0,2.5 0,2.5 0,2.5 0,2.5 0,2.5 0,2.5 0,2.5 -5,0 0,2.5 12.5,0" /><path
         id="path3842"
         style="fill:#ffffff;fill-rule:nonzero;stroke:#ffffff;stroke-linejoin:miter"
         d="m 503.21457,148.1877 0,2.5 2.5,0 0,-2.5 0,-2.5 0,-2.5 2.5,0 0,2.5 7.5,0 0,-2.5 -7.5,0 0,-2.5 -2.5,0 0,-2.5 0,-2.5 0,-2.5 0,-2.5 2.5,0 0,-2.5 -2.5,0 0,-2.5 -2.5,0 0,2.5 0,2.5 0,2.5 0,2.5 0,2.5 0,2.5 0,2.5 0,2.5 0,2.5 m 12.5,-5 2.5,0 0,-2.5 0,-2.5 0,-2.5 0,-2.5 0,-2.5 0,-2.5 -2.5,0 0,2.5 0,2.5 0,2.5 0,2.5 0,2.5 0,2.5 m -7.5,-15 7.5,0 0,-2.5 -7.5,0 0,2.5" /><path
         id="path3844"
         style="fill:#ffffff;fill-rule:nonzero;stroke:#ffffff;stroke-linejoin:miter"
         d="m 523.21457,143.1877 0,2.5 2.5,0 0,-2.5 0,-2.5 0,-2.5 0,-2.5 0,-2.5 0,-2.5 2.5,0 0,-2.5 -2.5,0 0,-2.5 0,-2.5 0,-2.5 0,-2.5 -2.5,0 0,2.5 0,2.5 0,2.5 0,2.5 0,2.5 0,2.5 0,2.5 0,2.5 0,2.5 0,2.5 m 12.5,0 0,2.5 2.5,0 0,-2.5 0,-2.5 0,-2.5 0,-2.5 0,-2.5 0,-2.5 0,-2.5 -2.5,0 0,2.5 0,2.5 0,2.5 0,2.5 0,2.5 0,2.5 m -7.5,-15 7.5,0 0,-2.5 -7.5,0 0,2.5" /><path
         id="path3846"
         style="fill:#ffffff;fill-rule:nonzero;stroke:#ffffff;stroke-linejoin:miter"
         d="m 545.71457,143.1877 0,2.5 7.5,0 0,-2.5 -7.5,0 m 0,0 0,-2.5 0,-2.5 0,-2.5 -2.5,0 0,2.5 0,2.5 0,2.5 2.5,0 m 10,0 0,2.5 2.5,0 0,-2.5 0,-2.5 0,-2.5 0,-2.5 0,-2.5 0,-2.5 0,-2.5 -2.5,0 0,2.5 0,2.5 -10,0 0,2.5 10,0 0,2.5 0,2.5 -2.5,0 0,2.5 2.5,0 m -10,-15 -2.5,0 0,2.5 2.5,0 0,-2.5 m 0,0 10,0 0,-2.5 -10,0 0,2.5" /></g></g></g></svg>
